<?xml version="1.0" encoding="UTF-8" standalone="no"?>
<svg
   xmlns:dc="http://purl.org/dc/elements/1.1/"
   xmlns:cc="http://creativecommons.org/ns#"
   xmlns:rdf="http://www.w3.org/1999/02/22-rdf-syntax-ns#"
   xmlns:svg="http://www.w3.org/2000/svg"
   xmlns="http://www.w3.org/2000/svg"
   xmlns:sodipodi="http://sodipodi.sourceforge.net/DTD/sodipodi-0.dtd"
   xmlns:inkscape="http://www.inkscape.org/namespaces/inkscape"
   inkscape:export-ydpi="24"
   inkscape:export-xdpi="24"
   inkscape:export-filename="/home/bitbadger/GameProjects/AutoPrep/Sprites/Droid.png"
   sodipodi:docname="Droid.svg"
   inkscape:version="1.0 (4035a4fb49, 2020-05-01)"
   id="svg970"
   version="1.1"
   viewBox="0 0 33.866666 33.866668"
   height="128"
   width="128">
  <defs
     id="defs964">
    <filter
       height="1.2159999"
       y="-0.10799997"
       width="1.2160001"
       x="-0.10800003"
       id="filter1682"
       style="color-interpolation-filters:sRGB"
       inkscape:collect="always">
      <feGaussianBlur
         id="feGaussianBlur1684"
         stdDeviation="0.38100006"
         inkscape:collect="always" />
    </filter>
  </defs>
  <sodipodi:namedview
     showguides="false"
     inkscape:document-rotation="0"
     inkscape:window-maximized="1"
     inkscape:window-y="312"
     inkscape:window-x="0"
     inkscape:window-height="719"
     inkscape:window-width="1366"
     inkscape:showpageshadow="false"
     units="px"
     showgrid="true"
     inkscape:current-layer="layer1"
     inkscape:document-units="px"
     inkscape:cy="43.169199"
     inkscape:cx="47.635278"
     inkscape:zoom="5.1822407"
     inkscape:pageshadow="2"
     inkscape:pageopacity="0.0"
     borderopacity="1.0"
     bordercolor="#666666"
     pagecolor="#ffffff"
     id="base">
    <inkscape:grid
       dotted="false"
       id="grid1515"
       type="xygrid" />
  </sodipodi:namedview>
  <metadata
     id="metadata967">
    <rdf:RDF>
      <cc:Work
         rdf:about="">
        <dc:format>image/svg+xml</dc:format>
        <dc:type
           rdf:resource="http://purl.org/dc/dcmitype/StillImage" />
        <dc:title />
      </cc:Work>
    </rdf:RDF>
  </metadata>
  <g
     transform="translate(0,-263.13332)"
     id="layer1"
     inkscape:groupmode="layer"
     inkscape:label="Layer 1">
    <path
       d="m 13.392981,263.13334 c -2.052109,0 -3.175,3.70414 -3.7041665,6.35 -0.529167,2.64586 -0.793749,6.16569 -0.79375,10.58333 0,4.41766 0.155687,8.73122 0.79375,11.1125 0.6380615,2.38128 1.6520575,5.82084 3.7041665,5.82084 h 5.523177 c 2.052109,0 3.208074,-3.70418 3.704167,-5.82084 0.597739,-2.55034 0.826822,-6.69417 0.826822,-11.1125 0,-4.41833 -0.264581,-8.20208 -0.826822,-10.58333 -0.562241,-2.38125 -1.652058,-6.35 -3.704166,-6.35 z m 0.317293,0.79375 h 4.890658 c 1.817154,0 2.782036,3.78424 3.279903,6.05493 0.497867,2.27069 0.732255,5.87921 0.732255,10.0924 0,4.21319 -0.202953,8.16433 -0.732255,10.59626 -0.439293,2.01837 -1.462749,5.55056 -3.279903,5.55056 h -4.890658 c -1.817155,0 -2.714896,-3.27985 -3.279903,-5.55056 -0.5650085,-2.27072 -0.7033155,-6.3837 -0.7033155,-10.59626 10e-7,-4.21254 0.234735,-7.56939 0.7033155,-10.0924 0.468579,-2.52302 1.462748,-6.05493 3.279903,-6.05493 z"
       style="fill:#1f232e;fill-opacity:0.80000001;fill-rule:nonzero;stroke:none;stroke-width:0;stroke-linecap:square;stroke-linejoin:round;stroke-miterlimit:4;stroke-dasharray:none;stroke-dashoffset:0;stroke-opacity:0.992157;paint-order:markers fill stroke"
       id="rect1517-5" />
    <path
       sodipodi:nodetypes="sszsssszszs"
       inkscape:connector-curvature="0"
       id="path1281"
       d="m 13.711436,263.92709 4.890804,-2e-5 c 1.817155,0 2.782196,3.78447 3.280064,6.05516 0.497867,2.27069 0.732158,5.87876 0.732158,10.09195 0,4.21318 -0.202857,8.16458 -0.732158,10.59651 -0.439293,2.01838 -1.462909,5.55059 -3.280063,5.55059 l -4.890805,2e-5 c -1.817155,0 -2.715055,-3.27988 -3.280062,-5.55059 C 9.8663655,288.4 9.7285025,284.28672 9.7285025,280.07417 c 1e-6,-4.21254 0.234291,-7.56891 0.7028715,-10.09192 0.468579,-2.52302 1.462907,-6.05516 3.280062,-6.05516 z"
       style="fill:#67799a;fill-opacity:0.800946;fill-rule:nonzero;stroke:none;stroke-width:0;stroke-linecap:square;stroke-linejoin:round;stroke-miterlimit:4;stroke-dasharray:none;stroke-dashoffset:0;stroke-opacity:0.992157;paint-order:markers fill stroke" />
    <ellipse
       ry="7.4083333"
       rx="7.9375"
       cy="280.06665"
       cx="16.567984"
       id="path1648-2"
       style="fill:#1f232e;fill-opacity:0.80000001;fill-rule:nonzero;stroke:none;stroke-width:0;stroke-linecap:square;stroke-linejoin:round;stroke-miterlimit:4;stroke-dasharray:none;stroke-dashoffset:0;stroke-opacity:1;paint-order:markers fill stroke" />
    <ellipse
       style="fill:#67799a;fill-opacity:0.80000001;fill-rule:nonzero;stroke:none;stroke-width:0;stroke-linecap:square;stroke-linejoin:round;stroke-miterlimit:4;stroke-dasharray:none;stroke-dashoffset:0;stroke-opacity:1;paint-order:markers fill stroke"
       id="ellipse3210"
       cx="16.567984"
       cy="280.06665"
       rx="6.9514551"
       ry="6.4880242" />
    <path
       sodipodi:nodetypes="ccccccc"
       d="m 20.372917,275.83334 -3.439583,4.23333 3.439583,4.23334 h 3.603397 c 0.926803,-1.24222 1.423655,-2.71961 1.423686,-4.23334 -3.2e-5,-1.51372 -0.496885,-2.99111 -1.423686,-4.23333 z"
       style="mix-blend-mode:normal;fill:#e80000;fill-opacity:1;fill-rule:nonzero;stroke:none;stroke-width:0;stroke-linecap:square;stroke-linejoin:round;stroke-miterlimit:4;stroke-dasharray:none;stroke-dashoffset:0;stroke-opacity:1;paint-order:markers fill stroke;opacity:0.99700002"
       id="ellipse3226" />
    <path
       id="path1680"
       style="mix-blend-mode:normal;fill:#e80000;fill-opacity:1;fill-rule:nonzero;stroke:none;stroke-width:0;stroke-linecap:square;stroke-linejoin:round;stroke-miterlimit:4;stroke-dasharray:none;stroke-dashoffset:0;stroke-opacity:1;paint-order:markers fill stroke;opacity:0.99700002;filter:url(#filter1682)"
       d="m 20.372917,275.83334 -3.439583,4.23333 3.439583,4.23334 h 3.603397 c 0.926803,-1.24222 1.423655,-2.71961 1.423686,-4.23334 -3.2e-5,-1.51372 -0.496885,-2.99111 -1.423686,-4.23333 z"
       sodipodi:nodetypes="ccccccc" />
  </g>
</svg>
