<?xml version="1.0" encoding="UTF-8" standalone="no"?>
<svg
   xmlns:dc="http://purl.org/dc/elements/1.1/"
   xmlns:cc="http://creativecommons.org/ns#"
   xmlns:rdf="http://www.w3.org/1999/02/22-rdf-syntax-ns#"
   xmlns:svg="http://www.w3.org/2000/svg"
   xmlns="http://www.w3.org/2000/svg"
   xmlns:sodipodi="http://sodipodi.sourceforge.net/DTD/sodipodi-0.dtd"
   xmlns:inkscape="http://www.inkscape.org/namespaces/inkscape"
   inkscape:export-ydpi="96.000099"
   inkscape:export-xdpi="96.000099"
   inkscape:export-filename="/home/bitbadger/GameProjects/AutoPrep/Sprites/LoseScreen.png"
   width="1280"
   height="720"
   viewBox="0 0 1280 720"
   version="1.1"
   id="svg1154"
   inkscape:version="1.0 (4035a4fb49, 2020-05-01)"
   sodipodi:docname="LoseScreen.svg">
  <defs
     id="defs1148">
    <filter
       inkscape:collect="always"
       style="color-interpolation-filters:sRGB"
       id="filter1925"
       x="-0.042144151"
       width="1.0842883"
       y="-0.3403002"
       height="1.6806004">
      <feGaussianBlur
         inkscape:collect="always"
         stdDeviation="13.17334"
         id="feGaussianBlur1927" />
    </filter>
  </defs>
  <sodipodi:namedview
     id="base"
     pagecolor="#000000"
     bordercolor="#666666"
     borderopacity="1.0"
     inkscape:pageopacity="1"
     inkscape:pageshadow="2"
     inkscape:zoom="0.32389004"
     inkscape:cx="400"
     inkscape:cy="560"
     inkscape:document-units="px"
     inkscape:current-layer="layer3"
     inkscape:document-rotation="0"
     showgrid="false"
     units="px"
     inkscape:window-width="1366"
     inkscape:window-height="719"
     inkscape:window-x="0"
     inkscape:window-y="312"
     inkscape:window-maximized="1" />
  <metadata
     id="metadata1151">
    <rdf:RDF>
      <cc:Work
         rdf:about="">
        <dc:format>image/svg+xml</dc:format>
        <dc:type
           rdf:resource="http://purl.org/dc/dcmitype/StillImage" />
        <dc:title />
      </cc:Work>
    </rdf:RDF>
  </metadata>
  <g
     inkscape:label="Layer 1"
     inkscape:groupmode="layer"
     id="layer1">
    <g
       aria-label="Objective Failed"
       id="text1719"
       style="font-style:normal;font-weight:normal;font-size:96px;line-height:1.25;font-family:sans-serif;letter-spacing:0px;word-spacing:0px;fill:#ff0000;fill-opacity:1;stroke:none">
      <path
         d="m 272.0255,178.95586 q -10.3125,0 -16.40625,7.6875 -6.04688,7.6875 -6.04688,20.95312 0,13.21875 6.04688,20.90625 6.09375,7.6875 16.40625,7.6875 10.3125,0 16.3125,-7.6875 6.04687,-7.6875 6.04687,-20.90625 0,-13.26562 -6.04687,-20.95312 -6,-7.6875 -16.3125,-7.6875 z m 0,-7.6875 q 14.71875,0 23.53125,9.89062 8.8125,9.84375 8.8125,26.4375 0,16.54688 -8.8125,26.4375 -8.8125,9.84375 -23.53125,9.84375 -14.76563,0 -23.625,-9.84375 -8.8125,-9.84375 -8.8125,-26.4375 0,-16.59375 8.8125,-26.4375 8.85937,-9.89062 23.625,-9.89062 z"
         id="path1738" />
      <path
         d="m 356.49425,216.31523 q 0,-9.51562 -3.9375,-14.90625 -3.89063,-5.4375 -10.73438,-5.4375 -6.84375,0 -10.78125,5.4375 -3.89062,5.39063 -3.89062,14.90625 0,9.51563 3.89062,14.95313 3.9375,5.39062 10.78125,5.39062 6.84375,0 10.73438,-5.39062 3.9375,-5.4375 3.9375,-14.95313 z M 327.1505,197.98711 q 2.71875,-4.6875 6.84375,-6.9375 4.17187,-2.29688 9.9375,-2.29688 9.5625,0 15.51562,7.59375 6,7.59375 6,19.96875 0,12.375 -6,19.96875 -5.95312,7.59375 -15.51562,7.59375 -5.76563,0 -9.9375,-2.25 -4.125,-2.29687 -6.84375,-6.98437 v 7.875 h -8.67188 v -72.9375 h 8.67188 z"
         id="path1740" />
      <path
         d="m 379.74425,190.01836 h 8.625 v 53.4375 q 0,10.03125 -3.84375,14.53125 -3.79688,4.5 -12.28125,4.5 H 368.963 v -7.3125 h 2.29687 q 4.92188,0 6.70313,-2.29688 1.78125,-2.25 1.78125,-9.42187 z m 0,-20.4375 h 8.625 v 10.92187 h -8.625 z"
         id="path1742" />
      <path
         d="m 451.32237,214.11211 v 4.21875 h -39.65625 q 0.5625,8.90625 5.34375,13.59375 4.82813,4.64062 13.40625,4.64062 4.96875,0 9.60938,-1.21875 4.6875,-1.21875 9.28125,-3.65625 v 8.15625 q -4.64063,1.96875 -9.51563,3 -4.875,1.03125 -9.89062,1.03125 -12.5625,0 -19.92188,-7.3125 -7.3125,-7.3125 -7.3125,-19.78125 0,-12.89062 6.9375,-20.4375 6.98438,-7.59375 18.79688,-7.59375 10.59375,0 16.73437,6.84375 6.1875,6.79688 6.1875,18.51563 z m -8.625,-2.53125 q -0.0937,-7.07813 -3.98437,-11.29688 -3.84375,-4.21875 -10.21875,-4.21875 -7.21875,0 -11.57813,4.07813 -4.3125,4.07812 -4.96875,11.48437 z"
         id="path1744" />
      <path
         d="m 503.25987,192.03398 v 8.0625 q -3.65625,-2.01562 -7.35937,-3 -3.65625,-1.03125 -7.40625,-1.03125 -8.39063,0 -13.03125,5.34375 -4.64063,5.29688 -4.64063,14.90625 0,9.60938 4.64063,14.95313 4.64062,5.29687 13.03125,5.29687 3.75,0 7.40625,-0.98437 3.70312,-1.03125 7.35937,-3.04688 v 7.96875 q -3.60937,1.6875 -7.5,2.53125 -3.84375,0.84375 -8.20312,0.84375 -11.85938,0 -18.84375,-7.45312 -6.98438,-7.45313 -6.98438,-20.10938 0,-12.84375 7.03125,-20.20312 7.07813,-7.35938 19.35938,-7.35938 3.98437,0 7.78125,0.84375 3.79687,0.79688 7.35937,2.4375 z"
         id="path1746" />
      <path
         d="m 526.79112,175.11211 v 14.90625 h 17.76563 v 6.70312 h -17.76563 v 28.5 q 0,6.42188 1.73438,8.25 1.78125,1.82813 7.17187,1.82813 h 8.85938 v 7.21875 h -8.85938 q -9.98437,0 -13.78125,-3.70313 -3.79687,-3.75 -3.79687,-13.59375 v -28.5 h -6.32813 v -6.70312 h 6.32813 v -14.90625 z"
         id="path1748" />
      <path
         d="m 555.9005,190.01836 h 8.625 v 52.5 h -8.625 z m 0,-20.4375 h 8.625 v 10.92187 h -8.625 z"
         id="path1750" />
      <path
         d="m 576.38487,190.01836 h 9.14063 l 16.40625,44.0625 16.40625,-44.0625 h 9.14062 l -19.6875,52.5 h -11.71875 z"
         id="path1752" />
      <path
         d="m 684.29112,214.11211 v 4.21875 h -39.65625 q 0.5625,8.90625 5.34375,13.59375 4.82813,4.64062 13.40625,4.64062 4.96875,0 9.60938,-1.21875 4.6875,-1.21875 9.28125,-3.65625 v 8.15625 q -4.64063,1.96875 -9.51563,3 -4.875,1.03125 -9.89062,1.03125 -12.5625,0 -19.92188,-7.3125 -7.3125,-7.3125 -7.3125,-19.78125 0,-12.89062 6.9375,-20.4375 6.98438,-7.59375 18.79688,-7.59375 10.59375,0 16.73437,6.84375 6.1875,6.79688 6.1875,18.51563 z m -8.625,-2.53125 q -0.0937,-7.07813 -3.98437,-11.29688 -3.84375,-4.21875 -10.21875,-4.21875 -7.21875,0 -11.57813,4.07813 -4.3125,4.07812 -4.96875,11.48437 z"
         id="path1754" />
      <path
         d="m 729.338,172.53398 h 40.21875 v 7.96875 h -30.75 v 20.625 h 27.75 v 7.96875 h -27.75 v 33.42188 H 729.338 Z"
         id="path1756" />
      <path
         d="m 799.22862,216.12773 q -10.45312,0 -14.48437,2.39063 -4.03125,2.39062 -4.03125,8.15625 0,4.59375 3,7.3125 3.04687,2.67187 8.25,2.67187 7.17187,0 11.48437,-5.0625 4.35938,-5.10937 4.35938,-13.54687 v -1.92188 z m 17.20313,-3.5625 v 29.95313 h -8.625 v -7.96875 q -2.95313,4.78125 -7.35938,7.07812 -4.40625,2.25 -10.78125,2.25 -8.0625,0 -12.84375,-4.5 -4.73437,-4.54687 -4.73437,-12.14062 0,-8.85938 5.90625,-13.35938 5.95312,-4.5 17.71875,-4.5 h 12.09375 v -0.84375 q 0,-5.95312 -3.9375,-9.1875 -3.89063,-3.28125 -10.96875,-3.28125 -4.5,0 -8.76563,1.07813 -4.26562,1.07812 -8.20312,3.23437 v -7.96875 q 4.73437,-1.82812 9.1875,-2.71875 4.45312,-0.9375 8.67187,-0.9375 11.39063,0 17.01563,5.90625 5.625,5.90625 5.625,17.90625 z"
         id="path1758" />
      <path
         d="m 834.19737,190.01836 h 8.625 v 52.5 h -8.625 z m 0,-20.4375 h 8.625 v 10.92187 h -8.625 z"
         id="path1760" />
      <path
         d="m 860.86925,169.58086 h 8.625 v 72.9375 h -8.625 z"
         id="path1762" />
      <path
         d="m 932.44737,214.11211 v 4.21875 h -39.65625 q 0.5625,8.90625 5.34375,13.59375 4.82813,4.64062 13.40625,4.64062 4.96875,0 9.60938,-1.21875 4.6875,-1.21875 9.28125,-3.65625 v 8.15625 q -4.64063,1.96875 -9.51563,3 -4.875,1.03125 -9.89062,1.03125 -12.5625,0 -19.92188,-7.3125 -7.3125,-7.3125 -7.3125,-19.78125 0,-12.89062 6.9375,-20.4375 6.98438,-7.59375 18.79688,-7.59375 10.59375,0 16.73437,6.84375 6.1875,6.79688 6.1875,18.51563 z m -8.625,-2.53125 q -0.0937,-7.07813 -3.98437,-11.29688 -3.84375,-4.21875 -10.21875,-4.21875 -7.21875,0 -11.57813,4.07813 -4.3125,4.07812 -4.96875,11.48437 z"
         id="path1764" />
      <path
         d="m 981.1505,197.98711 v -28.40625 h 8.625 v 72.9375 h -8.625 v -7.875 q -2.71875,4.6875 -6.89063,6.98437 -4.125,2.25 -9.9375,2.25 -9.51562,0 -15.51562,-7.59375 -5.95313,-7.59375 -5.95313,-19.96875 0,-12.375 5.95313,-19.96875 6,-7.59375 15.51562,-7.59375 5.8125,0 9.9375,2.29688 4.17188,2.25 6.89063,6.9375 z m -29.39063,18.32812 q 0,9.51563 3.89063,14.95313 3.9375,5.39062 10.78125,5.39062 6.84375,0 10.78125,-5.39062 3.9375,-5.4375 3.9375,-14.95313 0,-9.51562 -3.9375,-14.90625 -3.9375,-5.4375 -10.78125,-5.4375 -6.84375,0 -10.78125,5.4375 -3.89063,5.39063 -3.89063,14.90625 z"
         id="path1766" />
    </g>
  </g>
  <g
     inkscape:groupmode="layer"
     id="layer3"
     inkscape:label="Layer 2"
     style="filter:url(#filter1925)">
    <g
       style="font-style:normal;font-weight:normal;font-size:96px;line-height:1.25;font-family:sans-serif;letter-spacing:0px;word-spacing:0px;fill:#ff0000;fill-opacity:1;stroke:none"
       id="text1719-9"
       aria-label="Objective Failed">
      <path
         id="path1738-2"
         d="m 272.0255,178.95586 q -10.3125,0 -16.40625,7.6875 -6.04688,7.6875 -6.04688,20.95312 0,13.21875 6.04688,20.90625 6.09375,7.6875 16.40625,7.6875 10.3125,0 16.3125,-7.6875 6.04687,-7.6875 6.04687,-20.90625 0,-13.26562 -6.04687,-20.95312 -6,-7.6875 -16.3125,-7.6875 z m 0,-7.6875 q 14.71875,0 23.53125,9.89062 8.8125,9.84375 8.8125,26.4375 0,16.54688 -8.8125,26.4375 -8.8125,9.84375 -23.53125,9.84375 -14.76563,0 -23.625,-9.84375 -8.8125,-9.84375 -8.8125,-26.4375 0,-16.59375 8.8125,-26.4375 8.85937,-9.89062 23.625,-9.89062 z" />
      <path
         id="path1740-0"
         d="m 356.49425,216.31523 q 0,-9.51562 -3.9375,-14.90625 -3.89063,-5.4375 -10.73438,-5.4375 -6.84375,0 -10.78125,5.4375 -3.89062,5.39063 -3.89062,14.90625 0,9.51563 3.89062,14.95313 3.9375,5.39062 10.78125,5.39062 6.84375,0 10.73438,-5.39062 3.9375,-5.4375 3.9375,-14.95313 z M 327.1505,197.98711 q 2.71875,-4.6875 6.84375,-6.9375 4.17187,-2.29688 9.9375,-2.29688 9.5625,0 15.51562,7.59375 6,7.59375 6,19.96875 0,12.375 -6,19.96875 -5.95312,7.59375 -15.51562,7.59375 -5.76563,0 -9.9375,-2.25 -4.125,-2.29687 -6.84375,-6.98437 v 7.875 h -8.67188 v -72.9375 h 8.67188 z" />
      <path
         id="path1742-6"
         d="m 379.74425,190.01836 h 8.625 v 53.4375 q 0,10.03125 -3.84375,14.53125 -3.79688,4.5 -12.28125,4.5 H 368.963 v -7.3125 h 2.29687 q 4.92188,0 6.70313,-2.29688 1.78125,-2.25 1.78125,-9.42187 z m 0,-20.4375 h 8.625 v 10.92187 h -8.625 z" />
      <path
         id="path1744-8"
         d="m 451.32237,214.11211 v 4.21875 h -39.65625 q 0.5625,8.90625 5.34375,13.59375 4.82813,4.64062 13.40625,4.64062 4.96875,0 9.60938,-1.21875 4.6875,-1.21875 9.28125,-3.65625 v 8.15625 q -4.64063,1.96875 -9.51563,3 -4.875,1.03125 -9.89062,1.03125 -12.5625,0 -19.92188,-7.3125 -7.3125,-7.3125 -7.3125,-19.78125 0,-12.89062 6.9375,-20.4375 6.98438,-7.59375 18.79688,-7.59375 10.59375,0 16.73437,6.84375 6.1875,6.79688 6.1875,18.51563 z m -8.625,-2.53125 q -0.0937,-7.07813 -3.98437,-11.29688 -3.84375,-4.21875 -10.21875,-4.21875 -7.21875,0 -11.57813,4.07813 -4.3125,4.07812 -4.96875,11.48437 z" />
      <path
         id="path1746-9"
         d="m 503.25987,192.03398 v 8.0625 q -3.65625,-2.01562 -7.35937,-3 -3.65625,-1.03125 -7.40625,-1.03125 -8.39063,0 -13.03125,5.34375 -4.64063,5.29688 -4.64063,14.90625 0,9.60938 4.64063,14.95313 4.64062,5.29687 13.03125,5.29687 3.75,0 7.40625,-0.98437 3.70312,-1.03125 7.35937,-3.04688 v 7.96875 q -3.60937,1.6875 -7.5,2.53125 -3.84375,0.84375 -8.20312,0.84375 -11.85938,0 -18.84375,-7.45312 -6.98438,-7.45313 -6.98438,-20.10938 0,-12.84375 7.03125,-20.20312 7.07813,-7.35938 19.35938,-7.35938 3.98437,0 7.78125,0.84375 3.79687,0.79688 7.35937,2.4375 z" />
      <path
         id="path1748-2"
         d="m 526.79112,175.11211 v 14.90625 h 17.76563 v 6.70312 h -17.76563 v 28.5 q 0,6.42188 1.73438,8.25 1.78125,1.82813 7.17187,1.82813 h 8.85938 v 7.21875 h -8.85938 q -9.98437,0 -13.78125,-3.70313 -3.79687,-3.75 -3.79687,-13.59375 v -28.5 h -6.32813 v -6.70312 h 6.32813 v -14.90625 z" />
      <path
         id="path1750-6"
         d="m 555.9005,190.01836 h 8.625 v 52.5 h -8.625 z m 0,-20.4375 h 8.625 v 10.92187 h -8.625 z" />
      <path
         id="path1752-6"
         d="m 576.38487,190.01836 h 9.14063 l 16.40625,44.0625 16.40625,-44.0625 h 9.14062 l -19.6875,52.5 h -11.71875 z" />
      <path
         id="path1754-4"
         d="m 684.29112,214.11211 v 4.21875 h -39.65625 q 0.5625,8.90625 5.34375,13.59375 4.82813,4.64062 13.40625,4.64062 4.96875,0 9.60938,-1.21875 4.6875,-1.21875 9.28125,-3.65625 v 8.15625 q -4.64063,1.96875 -9.51563,3 -4.875,1.03125 -9.89062,1.03125 -12.5625,0 -19.92188,-7.3125 -7.3125,-7.3125 -7.3125,-19.78125 0,-12.89062 6.9375,-20.4375 6.98438,-7.59375 18.79688,-7.59375 10.59375,0 16.73437,6.84375 6.1875,6.79688 6.1875,18.51563 z m -8.625,-2.53125 q -0.0937,-7.07813 -3.98437,-11.29688 -3.84375,-4.21875 -10.21875,-4.21875 -7.21875,0 -11.57813,4.07813 -4.3125,4.07812 -4.96875,11.48437 z" />
      <path
         id="path1756-9"
         d="m 729.338,172.53398 h 40.21875 v 7.96875 h -30.75 v 20.625 h 27.75 v 7.96875 h -27.75 v 33.42188 H 729.338 Z" />
      <path
         id="path1758-5"
         d="m 799.22862,216.12773 q -10.45312,0 -14.48437,2.39063 -4.03125,2.39062 -4.03125,8.15625 0,4.59375 3,7.3125 3.04687,2.67187 8.25,2.67187 7.17187,0 11.48437,-5.0625 4.35938,-5.10937 4.35938,-13.54687 v -1.92188 z m 17.20313,-3.5625 v 29.95313 h -8.625 v -7.96875 q -2.95313,4.78125 -7.35938,7.07812 -4.40625,2.25 -10.78125,2.25 -8.0625,0 -12.84375,-4.5 -4.73437,-4.54687 -4.73437,-12.14062 0,-8.85938 5.90625,-13.35938 5.95312,-4.5 17.71875,-4.5 h 12.09375 v -0.84375 q 0,-5.95312 -3.9375,-9.1875 -3.89063,-3.28125 -10.96875,-3.28125 -4.5,0 -8.76563,1.07813 -4.26562,1.07812 -8.20312,3.23437 v -7.96875 q 4.73437,-1.82812 9.1875,-2.71875 4.45312,-0.9375 8.67187,-0.9375 11.39063,0 17.01563,5.90625 5.625,5.90625 5.625,17.90625 z" />
      <path
         id="path1760-0"
         d="m 834.19737,190.01836 h 8.625 v 52.5 h -8.625 z m 0,-20.4375 h 8.625 v 10.92187 h -8.625 z" />
      <path
         id="path1762-4"
         d="m 860.86925,169.58086 h 8.625 v 72.9375 h -8.625 z" />
      <path
         id="path1764-8"
         d="m 932.44737,214.11211 v 4.21875 h -39.65625 q 0.5625,8.90625 5.34375,13.59375 4.82813,4.64062 13.40625,4.64062 4.96875,0 9.60938,-1.21875 4.6875,-1.21875 9.28125,-3.65625 v 8.15625 q -4.64063,1.96875 -9.51563,3 -4.875,1.03125 -9.89062,1.03125 -12.5625,0 -19.92188,-7.3125 -7.3125,-7.3125 -7.3125,-19.78125 0,-12.89062 6.9375,-20.4375 6.98438,-7.59375 18.79688,-7.59375 10.59375,0 16.73437,6.84375 6.1875,6.79688 6.1875,18.51563 z m -8.625,-2.53125 q -0.0937,-7.07813 -3.98437,-11.29688 -3.84375,-4.21875 -10.21875,-4.21875 -7.21875,0 -11.57813,4.07813 -4.3125,4.07812 -4.96875,11.48437 z" />
      <path
         id="path1766-7"
         d="m 981.1505,197.98711 v -28.40625 h 8.625 v 72.9375 h -8.625 v -7.875 q -2.71875,4.6875 -6.89063,6.98437 -4.125,2.25 -9.9375,2.25 -9.51562,0 -15.51562,-7.59375 -5.95313,-7.59375 -5.95313,-19.96875 0,-12.375 5.95313,-19.96875 6,-7.59375 15.51562,-7.59375 5.8125,0 9.9375,2.29688 4.17188,2.25 6.89063,6.9375 z m -29.39063,18.32812 q 0,9.51563 3.89063,14.95313 3.9375,5.39062 10.78125,5.39062 6.84375,0 10.78125,-5.39062 3.9375,-5.4375 3.9375,-14.95313 0,-9.51562 -3.9375,-14.90625 -3.9375,-5.4375 -10.78125,-5.4375 -6.84375,0 -10.78125,5.4375 -3.89063,5.39063 -3.89063,14.90625 z" />
    </g>
  </g>
</svg>
