<?xml version="1.0" encoding="UTF-8" standalone="no"?>
<svg
   xmlns:dc="http://purl.org/dc/elements/1.1/"
   xmlns:cc="http://creativecommons.org/ns#"
   xmlns:rdf="http://www.w3.org/1999/02/22-rdf-syntax-ns#"
   xmlns:svg="http://www.w3.org/2000/svg"
   xmlns="http://www.w3.org/2000/svg"
   xmlns:sodipodi="http://sodipodi.sourceforge.net/DTD/sodipodi-0.dtd"
   xmlns:inkscape="http://www.inkscape.org/namespaces/inkscape"
   inkscape:export-ydpi="24"
   inkscape:export-xdpi="24"
   inkscape:export-filename="/home/bitbadger/GameProjects/AutoPrep/Sprites/Player.png"
   sodipodi:docname="Player.svg"
   inkscape:version="1.0 (4035a4fb49, 2020-05-01)"
   id="svg970"
   version="1.1"
   viewBox="0 0 33.866666 33.866668"
   height="128"
   width="128">
  <defs
     id="defs964" />
  <sodipodi:namedview
     inkscape:document-rotation="0"
     inkscape:window-maximized="0"
     inkscape:window-y="312"
     inkscape:window-x="-4"
     inkscape:window-height="739"
     inkscape:window-width="1366"
     inkscape:showpageshadow="false"
     units="px"
     showgrid="true"
     inkscape:current-layer="layer1"
     inkscape:document-units="px"
     inkscape:cy="66.110772"
     inkscape:cx="80.778861"
     inkscape:zoom="11.642688"
     inkscape:pageshadow="2"
     inkscape:pageopacity="0.0"
     borderopacity="1.0"
     bordercolor="#666666"
     pagecolor="#ffffff"
     id="base">
    <inkscape:grid
       dotted="false"
       id="grid1515"
       type="xygrid" />
  </sodipodi:namedview>
  <metadata
     id="metadata967">
    <rdf:RDF>
      <cc:Work
         rdf:about="">
        <dc:format>image/svg+xml</dc:format>
        <dc:type
           rdf:resource="http://purl.org/dc/dcmitype/StillImage" />
        <dc:title />
      </cc:Work>
    </rdf:RDF>
  </metadata>
  <g
     transform="translate(0,-263.13332)"
     id="layer1"
     inkscape:groupmode="layer"
     inkscape:label="Layer 1">
    <path
       transform="matrix(0.26458334,0,0,0.26458334,0,263.13332)"
       d="M 54 0 C 46.243998 0 41.999997 13.999899 40 24 C 37.999999 34.000101 37.000002 47.303408 37 64 C 36.999998 80.696668 37.588423 96.999887 40 106 C 42.411573 115.00011 46.243998 128 54 128 L 74.875 128 C 82.631002 128 87.000003 113.99997 88.875 106 C 91.134171 96.36092 92 80.6992 92 64 C 92 47.3008 91.000002 33 88.875 24 C 86.749998 15 82.631002 0 74.875 0 L 54 0 z M 55.199219 3 L 73.683594 3 C 80.551577 3 84.198376 17.30263 86.080078 25.884766 C 87.96178 34.466901 88.847656 48.105429 88.847656 64.029297 C 88.847656 79.953127 88.08059 94.886579 86.080078 104.07812 C 84.419758 111.70665 80.551577 125.05664 73.683594 125.05664 L 55.199219 125.05664 C 48.331231 125.05664 44.938194 112.66034 42.802734 104.07812 C 40.667267 95.495914 40.144531 79.950746 40.144531 64.029297 C 40.144535 48.107886 41.03172 35.420551 42.802734 25.884766 C 44.573742 16.348942 48.331231 3 55.199219 3 z "
       style="opacity:1;fill:#113b11;fill-opacity:0.89999998;fill-rule:nonzero;stroke:none;stroke-width:0;stroke-linecap:square;stroke-linejoin:round;stroke-miterlimit:4;stroke-dasharray:none;stroke-dashoffset:0;stroke-opacity:0.992157;paint-order:markers fill stroke"
       id="rect1517" />
    <path
       sodipodi:nodetypes="sszsssszszs"
       inkscape:connector-curvature="0"
       id="path1281"
       d="m 14.605954,263.92707 4.890806,-2e-5 c 1.817154,0 2.782196,3.78447 3.280063,6.05516 0.497867,2.27069 0.732158,5.87876 0.732158,10.09195 0,4.21318 -0.202856,8.16458 -0.732158,10.59651 -0.439293,2.01838 -1.462909,5.55059 -3.280063,5.55059 l -4.890806,2e-5 c -1.817155,0 -2.715055,-3.27988 -3.280062,-5.55059 -0.565008,-2.27071 -0.702871,-6.38399 -0.702871,-10.59654 1e-6,-4.21254 0.234291,-7.56891 0.702871,-10.09192 0.468579,-2.52302 1.462907,-6.05516 3.280062,-6.05516 z"
       style="opacity:1;fill:#29a329;fill-opacity:0.80094582;fill-rule:nonzero;stroke:none;stroke-width:0;stroke-linecap:square;stroke-linejoin:round;stroke-miterlimit:4;stroke-dasharray:none;stroke-dashoffset:0;stroke-opacity:0.992157;paint-order:markers fill stroke" />
    <ellipse
       ry="7.4083333"
       rx="7.9375"
       cy="280.06665"
       cx="17.462502"
       id="path1648"
       style="opacity:1;fill:#113b11;fill-opacity:0.80000001;fill-rule:nonzero;stroke:none;stroke-width:0;stroke-linecap:square;stroke-linejoin:round;stroke-miterlimit:4;stroke-dasharray:none;stroke-dashoffset:0;stroke-opacity:1;paint-order:markers fill stroke" />
    <ellipse
       style="opacity:1;fill:#29a329;fill-opacity:0.60000002;fill-rule:nonzero;stroke:none;stroke-width:0;stroke-linecap:square;stroke-linejoin:round;stroke-miterlimit:4;stroke-dasharray:none;stroke-dashoffset:0;stroke-opacity:1;paint-order:markers fill stroke"
       id="ellipse3210"
       cx="17.462502"
       cy="280.06665"
       rx="6.9514551"
       ry="6.4880242" />
    <path
       sodipodi:nodetypes="ccccccc"
       d="m 21.267436,275.83332 -3.439584,4.23333 3.439584,4.23334 h 3.603398 c 0.926803,-1.24222 1.423655,-2.71961 1.423686,-4.23334 -3.3e-5,-1.51372 -0.496885,-2.99111 -1.423686,-4.23333 z"
       style="opacity:1;mix-blend-mode:normal;fill:#070c18;fill-opacity:1;fill-rule:nonzero;stroke:none;stroke-width:0;stroke-linecap:square;stroke-linejoin:round;stroke-miterlimit:4;stroke-dasharray:none;stroke-dashoffset:0;stroke-opacity:1;paint-order:markers fill stroke"
       id="ellipse3226" />
  </g>
</svg>
