<?xml version="1.0" encoding="UTF-8" standalone="no"?>
<svg
   xmlns:dc="http://purl.org/dc/elements/1.1/"
   xmlns:cc="http://creativecommons.org/ns#"
   xmlns:rdf="http://www.w3.org/1999/02/22-rdf-syntax-ns#"
   xmlns:svg="http://www.w3.org/2000/svg"
   xmlns="http://www.w3.org/2000/svg"
   xmlns:xlink="http://www.w3.org/1999/xlink"
   xmlns:sodipodi="http://sodipodi.sourceforge.net/DTD/sodipodi-0.dtd"
   xmlns:inkscape="http://www.inkscape.org/namespaces/inkscape"
   width="512"
   height="512"
   viewBox="0 0 512 512.00002"
   version="1.1"
   id="svg8"
   inkscape:version="1.0 (4035a4fb49, 2020-05-01)"
   sodipodi:docname="Tiles.svg"
   inkscape:export-filename="/home/bitbadger/GameProjects/AutoPrep/Sprites/Tiles.png"
   inkscape:export-xdpi="96.000092"
   inkscape:export-ydpi="96.000092">
  <defs
     id="defs2">
    <linearGradient
       inkscape:collect="always"
       id="linearGradient1009">
      <stop
         style="stop-color:#b3b3b3;stop-opacity:1;"
         offset="0"
         id="stop1005" />
      <stop
         style="stop-color:#1a1a1a;stop-opacity:1"
         offset="1"
         id="stop1007" />
    </linearGradient>
    <linearGradient
       inkscape:collect="always"
       xlink:href="#linearGradient1009"
       id="linearGradient1011"
       x1="17"
       y1="711.51965"
       x2="17"
       y2="724.51965"
       gradientUnits="userSpaceOnUse" />
  </defs>
  <sodipodi:namedview
     id="base"
     pagecolor="#ffffff"
     bordercolor="#666666"
     borderopacity="1.0"
     inkscape:pageopacity="0.0"
     inkscape:pageshadow="2"
     inkscape:zoom="3.6643974"
     inkscape:cx="23.317951"
     inkscape:cy="58.221747"
     inkscape:document-units="px"
     inkscape:current-layer="layer1"
     showgrid="true"
     units="px"
     inkscape:showpageshadow="false"
     inkscape:window-width="1366"
     inkscape:window-height="719"
     inkscape:window-x="0"
     inkscape:window-y="312"
     inkscape:window-maximized="1"
     inkscape:document-rotation="0"
     showguides="false">
    <inkscape:grid
       type="xygrid"
       id="grid815" />
  </sodipodi:namedview>
  <metadata
     id="metadata5">
    <rdf:RDF>
      <cc:Work
         rdf:about="">
        <dc:format>image/svg+xml</dc:format>
        <dc:type
           rdf:resource="http://purl.org/dc/dcmitype/StillImage" />
        <dc:title />
      </cc:Work>
    </rdf:RDF>
  </metadata>
  <g
     inkscape:label="Layer 1"
     inkscape:groupmode="layer"
     id="layer1"
     transform="translate(0,-610.51965)">
    <rect
       style="fill:#1a741a;fill-opacity:1;stroke-width:15;stroke-linecap:square;stroke-linejoin:round;paint-order:markers fill stroke"
       id="rect938"
       width="32"
       height="32"
       x="160"
       y="706.51965" />
    <rect
       y="706.51965"
       x="160"
       height="0.99999666"
       width="32"
       id="rect940"
       style="fill:#114a11;fill-opacity:1;stroke-width:2.65165;stroke-linecap:square;stroke-linejoin:round;paint-order:markers fill stroke" />
    <rect
       style="fill:#114a11;fill-opacity:1;stroke-width:2.65165;stroke-linecap:square;stroke-linejoin:round;paint-order:markers fill stroke"
       id="rect942"
       width="32"
       height="0.99999666"
       x="160"
       y="737.51965" />
    <rect
       y="707.51965"
       x="160"
       height="29.999973"
       width="1"
       id="rect944"
       style="fill:#114a11;fill-opacity:1;stroke-width:2.56745;stroke-linecap:square;stroke-linejoin:round;paint-order:markers fill stroke" />
    <rect
       style="fill:#114a11;fill-opacity:1;stroke-width:2.56745;stroke-linecap:square;stroke-linejoin:round;paint-order:markers fill stroke"
       id="rect946"
       width="1"
       height="29.999973"
       x="191"
       y="707.51965" />
    <circle
       r="12"
       cy="722.51965"
       cx="176"
       id="circle954"
       style="fill:none;fill-opacity:1;stroke:#193966;stroke-width:2;stroke-linecap:square;stroke-linejoin:round;stroke-miterlimit:4;stroke-dasharray:none;stroke-opacity:1;paint-order:markers fill stroke" />
    <rect
       style="opacity:1;fill:#552200;fill-opacity:1;fill-rule:nonzero;stroke:none;stroke-width:15;stroke-linecap:square;stroke-linejoin:round;stroke-miterlimit:4;stroke-dasharray:none;stroke-dashoffset:0;stroke-opacity:1;paint-order:markers fill stroke"
       id="rect976"
       width="32"
       height="32"
       x="0"
       y="706.51965"
       inkscape:export-filename="/home/bitbadger/GameProjects/AutoPrep/Sprites/Goal.png"
       inkscape:export-xdpi="96.000092"
       inkscape:export-ydpi="96.000092" />
    <rect
       style="opacity:1;fill:#552200;fill-opacity:1;fill-rule:nonzero;stroke:none;stroke-width:15;stroke-linecap:square;stroke-linejoin:round;stroke-miterlimit:4;stroke-dasharray:none;stroke-dashoffset:0;stroke-opacity:1;paint-order:markers fill stroke"
       id="rect4520"
       width="32"
       height="32"
       x="0"
       y="610.51965" />
    <rect
       style="opacity:1;fill:#241c1c;fill-opacity:1;fill-rule:nonzero;stroke:none;stroke-width:15;stroke-linecap:square;stroke-linejoin:round;stroke-miterlimit:4;stroke-dasharray:none;stroke-dashoffset:0;stroke-opacity:1;paint-order:markers fill stroke"
       id="rect4522"
       width="32"
       height="32"
       x="32"
       y="610.51965" />
    <g
       id="g863">
      <rect
         y="610.51965"
         x="192"
         height="32"
         width="32"
         id="rect18"
         style="fill:#002a00;stroke-width:15;stroke-linecap:square;stroke-linejoin:round;paint-order:markers fill stroke;fill-opacity:1" />
      <rect
         style="fill:#001500;fill-opacity:1;stroke-width:2.65165;stroke-linecap:square;stroke-linejoin:round;paint-order:markers fill stroke"
         id="rect845"
         width="32"
         height="0.99999666"
         x="192"
         y="610.51965" />
      <rect
         y="641.51965"
         x="192"
         height="0.99999666"
         width="32"
         id="rect847"
         style="fill:#001500;fill-opacity:1;stroke-width:2.65165;stroke-linecap:square;stroke-linejoin:round;paint-order:markers fill stroke" />
      <rect
         style="fill:#001500;fill-opacity:1;stroke-width:2.57367;stroke-linecap:square;stroke-linejoin:round;paint-order:markers fill stroke"
         id="rect849"
         width="1"
         height="30.145247"
         x="223"
         y="611.37445" />
      <rect
         y="611.51965"
         x="192"
         height="30.145247"
         width="1"
         id="rect851"
         style="fill:#001500;fill-opacity:1;stroke-width:2.57367;stroke-linecap:square;stroke-linejoin:round;paint-order:markers fill stroke" />
    </g>
    <g
       id="g856">
      <rect
         y="610.51965"
         x="160"
         height="32"
         width="32"
         id="rect843"
         style="fill:#1a741a;fill-opacity:1;stroke-width:15;stroke-linecap:square;stroke-linejoin:round;paint-order:markers fill stroke" />
      <rect
         style="fill:#114a11;fill-opacity:1;stroke-width:2.65165;stroke-linecap:square;stroke-linejoin:round;paint-order:markers fill stroke"
         id="rect853"
         width="32"
         height="0.99999666"
         x="160"
         y="610.51965" />
      <rect
         y="641.51965"
         x="160"
         height="0.99999666"
         width="32"
         id="rect855"
         style="fill:#114a11;fill-opacity:1;stroke-width:2.65165;stroke-linecap:square;stroke-linejoin:round;paint-order:markers fill stroke" />
      <rect
         style="fill:#114a11;fill-opacity:1;stroke-width:2.56745;stroke-linecap:square;stroke-linejoin:round;paint-order:markers fill stroke"
         id="rect859"
         width="1"
         height="29.999973"
         x="160"
         y="611.51965" />
      <rect
         y="611.51965"
         x="191"
         height="29.999973"
         width="1"
         id="rect861"
         style="fill:#114a11;fill-opacity:1;stroke-width:2.56745;stroke-linecap:square;stroke-linejoin:round;paint-order:markers fill stroke" />
    </g>
    <rect
       y="674.51965"
       x="0"
       height="32"
       width="32"
       id="rect865"
       style="opacity:1;fill:#552200;fill-opacity:1;fill-rule:nonzero;stroke:none;stroke-width:15;stroke-linecap:square;stroke-linejoin:round;stroke-miterlimit:4;stroke-dasharray:none;stroke-dashoffset:0;stroke-opacity:1;paint-order:markers fill stroke" />
    <path
       id="path886"
       style="fill:#4d4d4d;stroke-width:20.0001;stroke-linecap:square;stroke-linejoin:round;paint-order:markers fill stroke"
       d="m 7,683.51965 4.25,1.25 -1.25,-4.25 4.75,2.75 2.25,-2.75 1.5,2.25 2.5,-1.25 1.5,1.75 2.5,0.25 -0.75,2.75 1.75,3.25 -2.25,2.25 1.25,3.75 h -3.25 l 0.25,3 -3.75,-1 -2.25,3 -1.25,-2.75 -3.75,0.75 0.25,-2.25 -3.25,2.25 1,-4 -3,1 2,-3 -3,-1 3,-1.5 -3,-2.5 4,-0.5 z"
       sodipodi:nodetypes="ccccccccccccccccccccccccccccc" />
    <path
       sodipodi:nodetypes="ccccccccccccccccccccccccccccc"
       d="m 9,685.51965 4.25,1 -1.25,-3 3.75,1 1.25,-2 1.5,1.25 2.5,-1.25 0.5,1.75 2.5,0.25 -1.25,2.25 1.25,1.75 -1.75,2.75 0.75,3.25 -2.5,-0.25 -0.5,2.25 -2.5,-0.75 -1.5,1.75 -1,-1.5 -2,0.5 v -1.5 l -2,-0.5 0.75,-1 -1.75,-1 1.25,-1 -2.25,-1 2.25,-0.75 -1.25,-1.25 1.75,-0.25 z"
       style="fill:#333333;stroke-width:20.0001;stroke-linecap:square;stroke-linejoin:round;paint-order:markers fill stroke"
       id="path892" />
    <path
       id="path894"
       style="fill:#1a1a1a;stroke-width:20.0001;stroke-linecap:square;stroke-linejoin:round;paint-order:markers fill stroke"
       d="m 12,687.51965 2,0.25 v -2.25 l 2,0.75 1,-1.75 1.25,1 1.75,-1 0.75,1 H 22 l -0.25,1.75 1.25,1.25 -1.75,2.25 0.75,2.75 -2,-0.25 -1,2.25 -1,-0.75 -2,1.75 c 0.133009,0.0665 0,-1.5 0,-1.5 l -2,0.5 v -1.5 l -2,0.5 0.75,-1.75 -0.75,-0.25 0.25,-1.25 -1.25,-0.75 1.25,-0.5 -0.25,-0.5 0.75,-0.5 z"
       sodipodi:nodetypes="ccccccccccccccccccccccccccccc" />
    <g
       id="g973">
      <rect
         style="fill:#1a741a;fill-opacity:1;stroke-width:15;stroke-linecap:square;stroke-linejoin:round;paint-order:markers fill stroke"
         id="rect867"
         width="32"
         height="32"
         x="160"
         y="674.51965" />
      <rect
         y="674.51965"
         x="160"
         height="0.99999666"
         width="32"
         id="rect869"
         style="fill:#114a11;fill-opacity:1;stroke-width:2.65165;stroke-linecap:square;stroke-linejoin:round;paint-order:markers fill stroke" />
      <rect
         style="fill:#114a11;fill-opacity:1;stroke-width:2.65165;stroke-linecap:square;stroke-linejoin:round;paint-order:markers fill stroke"
         id="rect871"
         width="32"
         height="0.99999666"
         x="160"
         y="705.51965" />
      <rect
         y="675.51965"
         x="160"
         height="29.999973"
         width="1"
         id="rect873"
         style="fill:#114a11;fill-opacity:1;stroke-width:2.56745;stroke-linecap:square;stroke-linejoin:round;paint-order:markers fill stroke" />
      <rect
         style="fill:#114a11;fill-opacity:1;stroke-width:2.56745;stroke-linecap:square;stroke-linejoin:round;paint-order:markers fill stroke"
         id="rect875"
         width="1"
         height="29.999973"
         x="191"
         y="675.51965" />
      <path
         sodipodi:nodetypes="csc"
         d="m 170,697.51965 c 0,-0.97194 1.30558,-2.01974 6,-2.01974 4.69442,0 6,1.0478 6,2.01974"
         style="fill:#193966;stroke-width:6.82529;stroke-linecap:square;stroke-linejoin:round;paint-order:markers fill stroke;fill-opacity:1"
         id="path896" />
      <path
         id="rect883"
         style="fill:#193966;stroke-width:20.0001;stroke-linecap:square;stroke-linejoin:round;paint-order:markers fill stroke;fill-opacity:1"
         d="m 171,690.51965 h 13 v 2 l -7,1 -0.5,2.5 h -2 l -0.5,-2.5 -3,-1 z"
         sodipodi:nodetypes="ccccccccc" />
      <path
         d="m 174.84245,688.20361 h 1.19282 v 1.47245 h -1.19282 z m 1.15756,-0.85216 h -1.1223 v -0.89276 q 0,-0.5855 0.16453,-0.96229 0.16452,-0.37682 0.69335,-0.87537 l 0.52885,-0.51593 q 0.33492,-0.30725 0.48182,-0.57971 0.15277,-0.27246 0.15277,-0.55652 0,-0.51594 -0.38781,-0.83477 -0.38194,-0.31883 -1.01653,-0.31883 -0.46421,0 -0.99304,0.20289 -0.52296,0.20289 -1.09292,0.59129 v -1.08984 q 0.55234,-0.33043 1.11643,-0.49274 0.56996,-0.16233 1.17519,-0.16233 1.08117,0 1.73339,0.56232 0.65811,0.56231 0.65811,1.48405 0,0.44057 -0.21155,0.84056 -0.21152,0.39421 -0.74035,0.89276 l -0.51708,0.49853 q -0.27618,0.27247 -0.39369,0.429 -0.11162,0.15071 -0.15865,0.29565 -0.0352,0.12169 -0.0529,0.29563 -0.0176,0.17392 -0.0176,0.47537 z"
         id="path870"
         style="font-style:normal;font-weight:normal;font-size:8px;line-height:1.25;font-family:sans-serif;letter-spacing:0px;word-spacing:0px;fill:#193966;fill-opacity:1;stroke:none;stroke-width:1.49411" />
      <circle
         r="12"
         cy="690.51965"
         cx="176"
         id="path962"
         style="opacity:1;fill:none;fill-opacity:1;stroke:#193966;stroke-width:2;stroke-linecap:square;stroke-linejoin:round;stroke-miterlimit:4;stroke-dasharray:none;stroke-opacity:1;paint-order:markers fill stroke" />
    </g>
    <g
       id="g956">
      <rect
         y="674.51965"
         x="192"
         height="32"
         width="32"
         id="rect908"
         style="fill:#1a741a;fill-opacity:1;stroke-width:15;stroke-linecap:square;stroke-linejoin:round;paint-order:markers fill stroke" />
      <rect
         style="fill:#114a11;fill-opacity:1;stroke-width:2.65165;stroke-linecap:square;stroke-linejoin:round;paint-order:markers fill stroke"
         id="rect910"
         width="32"
         height="0.99999666"
         x="192"
         y="674.51965" />
      <rect
         y="705.51965"
         x="192"
         height="0.99999666"
         width="32"
         id="rect912"
         style="fill:#114a11;fill-opacity:1;stroke-width:2.65165;stroke-linecap:square;stroke-linejoin:round;paint-order:markers fill stroke" />
      <rect
         style="fill:#114a11;fill-opacity:1;stroke-width:2.56745;stroke-linecap:square;stroke-linejoin:round;paint-order:markers fill stroke"
         id="rect914"
         width="1"
         height="29.999973"
         x="192"
         y="675.51965" />
      <rect
         y="675.51965"
         x="223"
         height="29.999973"
         width="1"
         id="rect916"
         style="fill:#114a11;fill-opacity:1;stroke-width:2.56745;stroke-linecap:square;stroke-linejoin:round;paint-order:markers fill stroke" />
      <path
         id="path920"
         style="fill:#193966;fill-opacity:1;stroke-width:6.82529;stroke-linecap:square;stroke-linejoin:round;paint-order:markers fill stroke"
         d="m 202,697.51965 c 0,-0.97194 1.30558,-2.01974 6,-2.01974 4.69442,0 6,1.0478 6,2.01974"
         sodipodi:nodetypes="csc" />
      <path
         sodipodi:nodetypes="ccccccccc"
         d="m 203,690.51965 h 13 v 2 l -7,1 -0.5,2.5 h -2 l -0.5,-2.5 -3,-1 z"
         style="fill:#193966;fill-opacity:1;stroke-width:20.0001;stroke-linecap:square;stroke-linejoin:round;paint-order:markers fill stroke"
         id="path922" />
      <g
         aria-label="?"
         id="g926"
         style="font-style:normal;font-weight:normal;font-size:8px;line-height:1.25;font-family:sans-serif;letter-spacing:0px;word-spacing:0px;fill:#193966;fill-opacity:1;stroke:none"
         transform="matrix(1.4840451,0,0,1.4840451,-54.194484,-331.77939)">
        <path
           d="m 175.88258,687.29919 h 0.79297 v 0.99219 h -0.79297 z m 0.76953,-0.57421 h -0.74609 v -0.60157 q 0,-0.39453 0.10938,-0.64843 0.10937,-0.25391 0.46093,-0.58985 l 0.35157,-0.34765 q 0.22265,-0.20704 0.32031,-0.39063 0.10156,-0.18359 0.10156,-0.375 0,-0.34766 -0.25781,-0.5625 -0.25391,-0.21484 -0.67578,-0.21484 -0.3086,0 -0.66016,0.13672 -0.34766,0.13671 -0.72656,0.39843 v -0.73437 q 0.36719,-0.22266 0.74219,-0.33203 0.3789,-0.10938 0.78125,-0.10938 0.71875,0 1.15234,0.37891 0.4375,0.3789 0.4375,1 0,0.29687 -0.14063,0.5664 -0.14062,0.26563 -0.49218,0.60157 l -0.34375,0.33593 q -0.1836,0.1836 -0.26172,0.28907 -0.0742,0.10156 -0.10547,0.19922 -0.0234,0.082 -0.0352,0.19921 -0.0117,0.11719 -0.0117,0.32032 z"
           id="path924"
           style="fill:#193966;fill-opacity:1" />
      </g>
      <circle
         style="opacity:1;fill:none;fill-opacity:1;stroke:#193966;stroke-width:2;stroke-linecap:square;stroke-linejoin:round;stroke-miterlimit:4;stroke-dasharray:none;stroke-opacity:1;paint-order:markers fill stroke"
         id="circle928"
         cx="208"
         cy="690.51965"
         r="12" />
      <rect
         y="674.51965"
         x="192"
         height="0.99999666"
         width="32"
         id="rect935"
         style="fill:#114a11;fill-opacity:1;stroke-width:2.65165;stroke-linecap:square;stroke-linejoin:round;paint-order:markers fill stroke" />
      <rect
         transform="rotate(-45)"
         style="fill:#ff0000;fill-opacity:1;stroke-width:2.69408;stroke-linecap:square;stroke-linejoin:round;paint-order:markers fill stroke"
         id="rect937"
         width="32"
         height="2"
         x="-357.19293"
         y="634.34937" />
      <rect
         y="340.19293"
         x="619.34937"
         height="2"
         width="32"
         id="rect941"
         style="fill:#ff0000;fill-opacity:1;stroke-width:2.69408;stroke-linecap:square;stroke-linejoin:round;paint-order:markers fill stroke"
         transform="rotate(45)" />
    </g>
    <rect
       style="opacity:0.999;fill:#483737;fill-opacity:0;stroke-width:2;stroke-linecap:square;stroke-linejoin:round;paint-order:markers fill stroke"
       id="rect981"
       width="28"
       height="11.000003"
       x="2"
       y="708.51965"
       ry="0" />
    <rect
       style="opacity:0.999;fill:#ff0000;fill-opacity:0;stroke-width:2;stroke-linecap:square;stroke-linejoin:round;paint-order:markers fill stroke"
       id="rect983"
       width="22"
       height="11"
       x="7"
       y="709.51965" />
    <rect
       style="opacity:0.999;fill:#4d4d4d;fill-opacity:1;stroke:none;stroke-width:2.50185;stroke-linecap:square;stroke-linejoin:round;stroke-opacity:1;paint-order:markers fill stroke"
       id="rect985"
       width="26"
       height="26"
       x="3"
       y="709.51965" />
    <rect
       y="711.51965"
       x="5"
       height="12.999997"
       width="22"
       id="rect1003"
       style="opacity:0.999;fill:url(#linearGradient1011);fill-opacity:1;stroke:none;stroke-width:1.62731;stroke-linecap:square;stroke-linejoin:round;stroke-opacity:1;paint-order:markers fill stroke" />
    <rect
       style="opacity:0.999;fill:#3e5ee2;fill-opacity:1;stroke:none;stroke-width:2;stroke-linecap:square;stroke-linejoin:round;stroke-opacity:1;paint-order:markers fill stroke"
       id="rect1013"
       width="20"
       height="11"
       x="6"
       y="712.51965" />
    <rect
       style="opacity:0.999;fill:#1a1a1a;fill-opacity:1;stroke:none;stroke-width:2;stroke-linecap:square;stroke-linejoin:round;stroke-opacity:1;paint-order:markers fill stroke"
       id="rect1016"
       width="26"
       height="2.0000033"
       x="3"
       y="733.51965" />
    <rect
       style="opacity:0.999;fill:#1a1a1a;fill-opacity:1;stroke:none;stroke-width:2;stroke-linecap:square;stroke-linejoin:round;stroke-opacity:1;paint-order:markers fill stroke"
       id="rect1018"
       width="22"
       height="7"
       x="5"
       y="725.51965" />
    <rect
       style="opacity:0.999;fill:#51ec3b;fill-opacity:1;stroke:none;stroke-width:2;stroke-linecap:square;stroke-linejoin:round;stroke-opacity:1;paint-order:markers fill stroke"
       id="rect1020"
       width="18"
       height="0.99999666"
       x="7"
       y="713.51965" />
    <rect
       y="715.51965"
       x="7"
       height="0.99999666"
       width="7"
       id="rect1022"
       style="opacity:0.999;fill:#51ec3b;fill-opacity:1;stroke:none;stroke-width:1.24722;stroke-linecap:square;stroke-linejoin:round;stroke-opacity:1;paint-order:markers fill stroke" />
    <rect
       style="opacity:0.999;fill:#51ec3b;fill-opacity:1;stroke:none;stroke-width:0.942809;stroke-linecap:square;stroke-linejoin:round;stroke-opacity:1;paint-order:markers fill stroke"
       id="rect1024"
       width="4"
       height="0.99999666"
       x="7"
       y="717.51965" />
    <rect
       y="719.51965"
       x="7"
       height="0.99999666"
       width="15"
       id="rect1026"
       style="opacity:0.999;fill:#51ec3b;fill-opacity:1;stroke:none;stroke-width:1.82574;stroke-linecap:square;stroke-linejoin:round;stroke-opacity:1;paint-order:markers fill stroke" />
    <rect
       style="opacity:0.999;fill:#51ec3b;fill-opacity:1;stroke:none;stroke-width:1.33333;stroke-linecap:square;stroke-linejoin:round;stroke-opacity:1;paint-order:markers fill stroke"
       id="rect1028"
       width="8"
       height="0.99999666"
       x="7"
       y="721.51965" />
    <rect
       y="706.51965"
       x="192"
       height="32"
       width="32"
       id="rect959"
       style="fill:#1a741a;fill-opacity:1;stroke-width:15;stroke-linecap:square;stroke-linejoin:round;paint-order:markers fill stroke" />
    <rect
       style="fill:#114a11;fill-opacity:1;stroke-width:2.65165;stroke-linecap:square;stroke-linejoin:round;paint-order:markers fill stroke"
       id="rect961"
       width="32"
       height="0.99999666"
       x="192"
       y="706.51965" />
    <rect
       y="737.51965"
       x="192"
       height="0.99999666"
       width="32"
       id="rect963"
       style="fill:#114a11;fill-opacity:1;stroke-width:2.65165;stroke-linecap:square;stroke-linejoin:round;paint-order:markers fill stroke" />
    <rect
       style="fill:#114a11;fill-opacity:1;stroke-width:2.56745;stroke-linecap:square;stroke-linejoin:round;paint-order:markers fill stroke"
       id="rect965"
       width="1"
       height="29.999973"
       x="192"
       y="707.51965" />
    <rect
       y="707.51965"
       x="223"
       height="29.999973"
       width="1"
       id="rect967"
       style="fill:#114a11;fill-opacity:1;stroke-width:2.56745;stroke-linecap:square;stroke-linejoin:round;paint-order:markers fill stroke" />
    <circle
       style="fill:none;fill-opacity:1;stroke:#193966;stroke-width:2;stroke-linecap:square;stroke-linejoin:round;stroke-miterlimit:4;stroke-dasharray:none;stroke-opacity:1;paint-order:markers fill stroke"
       id="circle975"
       cx="208"
       cy="722.51965"
       r="12" />
    <g
       transform="matrix(0.2328708,0,0,0.2328708,150.84787,557.73166)"
       style="font-style:normal;font-weight:normal;font-size:40px;line-height:1.25;font-family:sans-serif;letter-spacing:0px;word-spacing:0px;fill:#000000;fill-opacity:1;stroke:none"
       id="text1006"
       aria-label="Goal">
      <path
         id="path1012"
         d="m 224.80859,716.3595 v -7.83203 h -6.44531 v -3.24219 h 10.35156 v 12.51953 q -2.28515,1.62109 -5.03906,2.46094 -2.75391,0.82031 -5.87891,0.82031 -6.83593,0 -10.70312,-3.98438 -3.84766,-4.0039 -3.84766,-11.13281 0,-7.14844 3.84766,-11.13281 3.86719,-4.00391 10.70312,-4.00391 2.85157,0 5.41016,0.70313 2.57813,0.70312 4.74609,2.07031 v 4.19922 q -2.1875,-1.85547 -4.64843,-2.79297 -2.46094,-0.9375 -5.17578,-0.9375 -5.35157,0 -8.04688,2.98828 -2.67578,2.98828 -2.67578,8.90625 0,5.89844 2.67578,8.88672 2.69531,2.98828 8.04688,2.98828 2.08984,0 3.73046,-0.35156 1.64063,-0.37109 2.94922,-1.13281 z" />
      <path
         id="path1014"
         d="m 244.24219,701.16418 q -2.89063,0 -4.57032,2.26563 -1.67968,2.24609 -1.67968,6.17187 0,3.92579 1.66015,6.19141 1.67969,2.24609 4.58985,2.24609 2.87109,0 4.55078,-2.26562 1.67969,-2.26563 1.67969,-6.17188 0,-3.88671 -1.67969,-6.15234 -1.67969,-2.28516 -4.55078,-2.28516 z m 0,-3.04687 q 4.6875,0 7.36328,3.04687 2.67578,3.04688 2.67578,8.4375 0,5.3711 -2.67578,8.4375 -2.67578,3.04688 -7.36328,3.04688 -4.70703,0 -7.38282,-3.04688 -2.65625,-3.0664 -2.65625,-8.4375 0,-5.39062 2.65625,-8.4375 2.67579,-3.04687 7.38282,-3.04687 z" />
      <path
         id="path1016"
         d="m 270.17969,709.52356 q -4.35547,0 -6.03516,0.99609 -1.67969,0.9961 -1.67969,3.39844 0,1.91406 1.25,3.04688 1.26953,1.11328 3.4375,1.11328 2.98828,0 4.78516,-2.10938 1.81641,-2.1289 1.81641,-5.64453 v -0.80078 z m 7.16797,-1.48438 v 12.48047 h -3.59375 v -3.32031 q -1.23047,1.99219 -3.06641,2.94922 -1.83594,0.9375 -4.49219,0.9375 -3.35937,0 -5.35156,-1.875 -1.97266,-1.89453 -1.97266,-5.05859 0,-3.69141 2.46094,-5.56641 2.48047,-1.875 7.38281,-1.875 h 5.03907 v -0.35156 q 0,-2.48047 -1.64063,-3.82813 -1.62109,-1.36719 -4.57031,-1.36719 -1.875,0 -3.65235,0.44922 -1.77734,0.44922 -3.41796,1.34766 v -3.32031 q 1.97265,-0.76172 3.82812,-1.13282 1.85547,-0.39062 3.61328,-0.39062 4.7461,0 7.08985,2.46094 2.34375,2.46093 2.34375,7.46093 z" />
      <path
         id="path1018"
         d="m 284.75,690.12903 h 3.59375 v 30.39062 H 284.75 Z" />
    </g>
    <g
       transform="matrix(0.1555596,0,0,0.1555596,136.31368,615.13895)"
       style="font-style:normal;font-weight:normal;font-size:40px;line-height:1.25;font-family:sans-serif;letter-spacing:0px;word-spacing:0px;fill:#000000;fill-opacity:1;stroke:none"
       id="text1023"
       aria-label="Spawn">
      <path
         id="path1025"
         d="m 210.40625,673.31653 v 3.84765 q -2.24609,-1.07421 -4.23828,-1.60156 -1.99219,-0.52734 -3.84766,-0.52734 -3.22265,0 -4.98047,1.25 -1.73828,1.25 -1.73828,3.55469 0,1.93359 1.15235,2.92968 1.17187,0.97657 4.41406,1.58203 l 2.38281,0.48829 q 4.41406,0.83984 6.50391,2.96875 2.10937,2.10937 2.10937,5.66406 0,4.23828 -2.85156,6.42578 -2.83203,2.1875 -8.32031,2.1875 -2.07032,0 -4.41407,-0.46875 -2.32421,-0.46875 -4.82421,-1.38672 v -4.0625 q 2.40234,1.34766 4.70703,2.03125 2.30468,0.68359 4.53125,0.68359 3.3789,0 5.21484,-1.32812 1.83594,-1.32813 1.83594,-3.78906 0,-2.14844 -1.32813,-3.35938 -1.30859,-1.21094 -4.3164,-1.8164 l -2.40235,-0.46875 q -4.41406,-0.87891 -6.38672,-2.75391 -1.97265,-1.875 -1.97265,-5.21484 0,-3.86719 2.71484,-6.09375 2.73438,-2.22657 7.51953,-2.22657 2.05078,0 4.17969,0.3711 2.12891,0.37109 4.35547,1.11328 z" />
      <path
         id="path1027"
         d="m 221.63672,698.2384 v 11.60157 h -3.61328 v -30.19532 h 3.61328 v 3.32032 q 1.13281,-1.95313 2.85156,-2.89063 1.73828,-0.95703 4.14063,-0.95703 3.98437,0 6.46484,3.16406 2.5,3.16406 2.5,8.32031 0,5.15625 -2.5,8.32032 -2.48047,3.16406 -6.46484,3.16406 -2.40235,0 -4.14063,-0.9375 -1.71875,-0.95703 -2.85156,-2.91016 z m 12.22656,-7.63672 q 0,-3.96484 -1.64062,-6.21093 -1.6211,-2.26563 -4.47266,-2.26563 -2.85156,0 -4.49219,2.26563 -1.62109,2.24609 -1.62109,6.21093 0,3.96485 1.62109,6.23047 1.64063,2.2461 4.49219,2.2461 2.85156,0 4.47266,-2.2461 1.64062,-2.26562 1.64062,-6.23047 z" />
      <path
         id="path1029"
         d="m 253.49219,690.52356 q -4.35547,0 -6.03516,0.99609 -1.67969,0.9961 -1.67969,3.39844 0,1.91406 1.25,3.04688 1.26953,1.11328 3.4375,1.11328 2.98828,0 4.78516,-2.10938 1.81641,-2.1289 1.81641,-5.64453 v -0.80078 z m 7.16797,-1.48438 v 12.48047 h -3.59375 v -3.32031 q -1.23047,1.99219 -3.06641,2.94922 -1.83594,0.9375 -4.49219,0.9375 -3.35937,0 -5.35156,-1.875 -1.97266,-1.89453 -1.97266,-5.05859 0,-3.69141 2.46094,-5.56641 2.48047,-1.875 7.38281,-1.875 h 5.03907 v -0.35156 q 0,-2.48047 -1.64063,-3.82813 -1.62109,-1.36719 -4.57031,-1.36719 -1.875,0 -3.65235,0.44922 -1.77734,0.44922 -3.41796,1.34766 v -3.32031 q 1.97265,-0.76172 3.82812,-1.13282 1.85547,-0.39062 3.61328,-0.39062 4.7461,0 7.08985,2.46094 2.34375,2.46093 2.34375,7.46093 z" />
      <path
         id="path1031"
         d="m 265.97266,679.64465 h 3.59375 l 4.49218,17.07032 4.47266,-17.07032 h 4.23828 l 4.49219,17.07032 4.47265,-17.07032 h 3.59375 l -5.72265,21.875 h -4.23828 l -4.70703,-17.92968 -4.72657,17.92968 h -4.23828 z" />
      <path
         id="path1033"
         d="m 318.96094,688.31653 v 13.20312 h -3.59375 v -13.08593 q 0,-3.10547 -1.21094,-4.64844 -1.21094,-1.54297 -3.63281,-1.54297 -2.91016,0 -4.58985,1.85547 -1.67968,1.85547 -1.67968,5.05859 v 12.36328 h -3.61329 v -21.875 h 3.61329 v 3.39844 q 1.28906,-1.97266 3.02734,-2.94922 1.75781,-0.97656 4.04297,-0.97656 3.76953,0 5.70312,2.34375 1.9336,2.32422 1.9336,6.85547 z" />
    </g>
    <rect
       y="641.51965"
       x="0"
       height="1.0000033"
       width="32"
       id="rect3275"
       style="opacity:1;fill:#0e0c0c;fill-opacity:1;fill-rule:nonzero;stroke:none;stroke-width:2.65165;stroke-linecap:square;stroke-linejoin:round;stroke-miterlimit:4;stroke-dasharray:none;stroke-dashoffset:0;stroke-opacity:1;paint-order:markers fill stroke" />
    <rect
       style="opacity:1;fill:#0e0c0c;fill-opacity:1;fill-rule:nonzero;stroke:none;stroke-width:2.65165;stroke-linecap:square;stroke-linejoin:round;stroke-miterlimit:4;stroke-dasharray:none;stroke-dashoffset:0;stroke-opacity:1;paint-order:markers fill stroke"
       id="rect3277"
       width="32"
       height="1.0000033"
       x="0"
       y="610.51965" />
    <rect
       y="610.51965"
       x="31"
       height="31.999973"
       width="1.0000019"
       id="rect3279"
       style="opacity:1;fill:#0e0c0c;fill-opacity:1;fill-rule:nonzero;stroke:none;stroke-width:2.65164;stroke-linecap:square;stroke-linejoin:round;stroke-miterlimit:4;stroke-dasharray:none;stroke-dashoffset:0;stroke-opacity:1;paint-order:markers fill stroke" />
    <rect
       style="opacity:1;fill:#0e0c0c;fill-opacity:1;fill-rule:nonzero;stroke:none;stroke-width:2.65164;stroke-linecap:square;stroke-linejoin:round;stroke-miterlimit:4;stroke-dasharray:none;stroke-dashoffset:0;stroke-opacity:1;paint-order:markers fill stroke"
       id="rect3281"
       width="1.0000019"
       height="31.999973"
       x="0"
       y="610.51965" />
    <rect
       style="opacity:1;fill:#0e0c0c;fill-opacity:1;fill-rule:nonzero;stroke:none;stroke-width:2.65165;stroke-linecap:square;stroke-linejoin:round;stroke-miterlimit:4;stroke-dasharray:none;stroke-dashoffset:0;stroke-opacity:1;paint-order:markers fill stroke"
       id="rect3283"
       width="32"
       height="1.0000033"
       x="0"
       y="705.51965" />
    <rect
       y="674.51965"
       x="0"
       height="1.0000033"
       width="32"
       id="rect3285"
       style="opacity:1;fill:#0e0c0c;fill-opacity:1;fill-rule:nonzero;stroke:none;stroke-width:2.65165;stroke-linecap:square;stroke-linejoin:round;stroke-miterlimit:4;stroke-dasharray:none;stroke-dashoffset:0;stroke-opacity:1;paint-order:markers fill stroke" />
    <rect
       style="opacity:1;fill:#0e0c0c;fill-opacity:1;fill-rule:nonzero;stroke:none;stroke-width:2.65164;stroke-linecap:square;stroke-linejoin:round;stroke-miterlimit:4;stroke-dasharray:none;stroke-dashoffset:0;stroke-opacity:1;paint-order:markers fill stroke"
       id="rect3287"
       width="1.0000019"
       height="31.999973"
       x="31"
       y="674.51965" />
    <rect
       y="674.51965"
       x="0"
       height="31.999973"
       width="1.0000019"
       id="rect3289"
       style="opacity:1;fill:#0e0c0c;fill-opacity:1;fill-rule:nonzero;stroke:none;stroke-width:2.65164;stroke-linecap:square;stroke-linejoin:round;stroke-miterlimit:4;stroke-dasharray:none;stroke-dashoffset:0;stroke-opacity:1;paint-order:markers fill stroke" />
    <rect
       y="737.51965"
       x="0"
       height="1.0000033"
       width="32"
       id="rect3291"
       style="opacity:1;fill:#0e0c0c;fill-opacity:1;fill-rule:nonzero;stroke:none;stroke-width:2.65165;stroke-linecap:square;stroke-linejoin:round;stroke-miterlimit:4;stroke-dasharray:none;stroke-dashoffset:0;stroke-opacity:1;paint-order:markers fill stroke" />
    <rect
       style="opacity:1;fill:#0e0c0c;fill-opacity:1;fill-rule:nonzero;stroke:none;stroke-width:2.65165;stroke-linecap:square;stroke-linejoin:round;stroke-miterlimit:4;stroke-dasharray:none;stroke-dashoffset:0;stroke-opacity:1;paint-order:markers fill stroke"
       id="rect3293"
       width="32"
       height="1.0000033"
       x="0"
       y="706.51965" />
    <rect
       y="706.51965"
       x="31"
       height="31.999973"
       width="1.0000019"
       id="rect3295"
       style="opacity:1;fill:#0e0c0c;fill-opacity:1;fill-rule:nonzero;stroke:none;stroke-width:2.65164;stroke-linecap:square;stroke-linejoin:round;stroke-miterlimit:4;stroke-dasharray:none;stroke-dashoffset:0;stroke-opacity:1;paint-order:markers fill stroke" />
    <rect
       style="opacity:1;fill:#0e0c0c;fill-opacity:1;fill-rule:nonzero;stroke:none;stroke-width:2.65164;stroke-linecap:square;stroke-linejoin:round;stroke-miterlimit:4;stroke-dasharray:none;stroke-dashoffset:0;stroke-opacity:1;paint-order:markers fill stroke"
       id="rect3297"
       width="1.0000019"
       height="31.999973"
       x="0"
       y="706.51965" />
  </g>
</svg>
