<?xml version="1.0" encoding="UTF-8" standalone="no"?>
<svg
   xmlns:dc="http://purl.org/dc/elements/1.1/"
   xmlns:cc="http://creativecommons.org/ns#"
   xmlns:rdf="http://www.w3.org/1999/02/22-rdf-syntax-ns#"
   xmlns:svg="http://www.w3.org/2000/svg"
   xmlns="http://www.w3.org/2000/svg"
   xmlns:sodipodi="http://sodipodi.sourceforge.net/DTD/sodipodi-0.dtd"
   xmlns:inkscape="http://www.inkscape.org/namespaces/inkscape"
   width="1280"
   height="720"
   viewBox="0 0 1280 720"
   version="1.1"
   id="svg8"
   inkscape:version="1.0 (4035a4fb49, 2020-05-01)"
   sodipodi:docname="WinScreen.svg"
   inkscape:export-filename="/home/bitbadger/GameProjects/AutoPrep/Sprites/WinScreen.png"
   inkscape:export-xdpi="96.000099"
   inkscape:export-ydpi="96.000099">
  <defs
     id="defs2">
    <filter
       inkscape:collect="always"
       style="color-interpolation-filters:sRGB"
       id="filter1126"
       x="-0.059558381"
       width="1.1191168"
       y="-0.57861322"
       height="2.1572264">
      <feGaussianBlur
         inkscape:collect="always"
         stdDeviation="20.714353"
         id="feGaussianBlur1128" />
    </filter>
  </defs>
  <sodipodi:namedview
     id="base"
     pagecolor="#000000"
     bordercolor="#666666"
     borderopacity="1.0"
     inkscape:pageopacity="1"
     inkscape:pageshadow="2"
     inkscape:zoom="0.32389004"
     inkscape:cx="198.63408"
     inkscape:cy="668.3203"
     inkscape:document-units="px"
     inkscape:current-layer="layer2"
     inkscape:document-rotation="0"
     showgrid="false"
     units="px"
     inkscape:window-width="1366"
     inkscape:window-height="719"
     inkscape:window-x="0"
     inkscape:window-y="312"
     inkscape:window-maximized="1" />
  <metadata
     id="metadata5">
    <rdf:RDF>
      <cc:Work
         rdf:about="">
        <dc:format>image/svg+xml</dc:format>
        <dc:type
           rdf:resource="http://purl.org/dc/dcmitype/StillImage" />
        <dc:title />
      </cc:Work>
    </rdf:RDF>
  </metadata>
  <g
     inkscape:label="Layer 1"
     inkscape:groupmode="layer"
     id="layer1"
     style="display:inline">
    <g
       aria-label="Level Complete!"
       id="text835"
       style="font-style:normal;font-variant:normal;font-weight:normal;font-stretch:normal;font-size:96px;line-height:1.25;font-family:'JetBrains Mono ExtraBold';-inkscape-font-specification:'JetBrains Mono ExtraBold, ';letter-spacing:0px;word-spacing:0px;fill:#00ff00;fill-opacity:1;stroke:none">
      <path
         d="m 231.17887,152.22987 v 55.68 h 28.32 v 13.44 h -42.72 v -69.12 z"
         id="path837" />
      <path
         d="m 294.05873,222.30987 q -5.472,0 -9.984,-1.536 -4.416,-1.536 -7.584,-4.224 -3.168,-2.784 -4.896,-6.72 -1.728,-3.936 -1.728,-8.64 v -12.576 q 0,-4.8 1.728,-8.64 1.728,-3.84 4.896,-6.624 3.168,-2.784 7.584,-4.224 4.512,-1.536 9.984,-1.536 5.376,0 9.792,1.536 4.416,1.536 7.584,4.32 3.168,2.784 4.896,6.72 1.728,3.84 1.728,8.544 v 9.6 h -33.984 v 2.88 q 0,4.8 2.592,7.488 2.592,2.592 7.392,2.592 3.552,0 6.048,-1.152 2.496,-1.152 3.36,-3.168 h 14.112 q -0.864,3.456 -3.072,6.336 -2.112,2.784 -5.184,4.8 -3.072,2.016 -7.008,3.168 -3.84,1.056 -8.256,1.056 z m 10.08,-32.64 v -0.96 q 0,-4.8 -2.688,-7.392 -2.592,-2.688 -7.392,-2.688 -4.704,0 -7.392,2.688 -2.592,2.592 -2.592,7.296 v 1.056 z"
         id="path839" />
      <path
         d="m 325.06658,168.54987 h 14.88 l 9.984,31.872 q 0.576,1.728 0.864,3.552 0.384,1.824 0.576,3.36 0.192,1.824 0.288,3.456 h 0.576 q 0.096,-1.632 0.288,-3.456 0.192,-1.536 0.576,-3.36 0.384,-1.824 0.864,-3.552 l 9.6,-31.872 h 14.688 l -17.856,52.8 h -17.28 z"
         id="path841" />
      <path
         d="m 409.25844,222.30987 q -5.472,0 -9.984,-1.536 -4.416,-1.536 -7.584,-4.224 -3.168,-2.784 -4.896,-6.72 -1.728,-3.936 -1.728,-8.64 v -12.576 q 0,-4.8 1.728,-8.64 1.728,-3.84 4.896,-6.624 3.168,-2.784 7.584,-4.224 4.512,-1.536 9.984,-1.536 5.376,0 9.792,1.536 4.416,1.536 7.584,4.32 3.168,2.784 4.896,6.72 1.728,3.84 1.728,8.544 v 9.6 h -33.984 v 2.88 q 0,4.8 2.592,7.488 2.592,2.592 7.392,2.592 3.552,0 6.048,-1.152 2.496,-1.152 3.36,-3.168 h 14.112 q -0.864,3.456 -3.072,6.336 -2.112,2.784 -5.184,4.8 -3.072,2.016 -7.008,3.168 -3.84,1.056 -8.256,1.056 z m 10.08,-32.64 v -0.96 q 0,-4.8 -2.688,-7.392 -2.592,-2.688 -7.392,-2.688 -4.704,0 -7.392,2.688 -2.592,2.592 -2.592,7.296 v 1.056 z"
         id="path843" />
      <path
         d="m 471.17829,151.26987 v 51.84 q 0,2.496 1.344,3.936 1.44,1.344 3.936,1.344 h 15.84 v 12.96 h -17.28 q -8.544,0 -13.44,-4.8 -4.8,-4.896 -4.8,-13.44 v -38.88 h -16.32 v -12.96 z"
         id="path845" />
      <path
         d="m 582.538,151.26987 q 5.376,0 9.792,1.536 4.416,1.536 7.584,4.416 3.168,2.784 4.896,6.816 1.728,3.936 1.728,8.832 h -14.4 q 0,-4.032 -2.592,-6.336 -2.592,-2.304 -7.008,-2.304 -4.512,0 -7.2,2.304 -2.592,2.304 -2.592,6.336 v 27.84 q 0,4.032 2.496,6.336 2.592,2.304 7.2,2.304 4.512,0 7.104,-2.4 2.592,-2.4 2.592,-6.24 h 14.4 q 0,4.896 -1.728,8.928 -1.728,3.936 -4.896,6.816 -3.168,2.784 -7.584,4.32 -4.416,1.536 -9.888,1.536 -5.472,0 -9.888,-1.536 -4.416,-1.536 -7.584,-4.32 -3.168,-2.88 -4.896,-6.816 -1.728,-4.032 -1.728,-8.928 v -27.84 q 0,-4.896 1.728,-8.832 1.728,-4.032 4.896,-6.816 3.168,-2.88 7.584,-4.416 4.512,-1.536 9.984,-1.536 z"
         id="path847" />
      <path
         d="m 629.86585,201.18987 q 0,3.936 2.592,6.24 2.688,2.304 7.2,2.304 4.512,0 7.104,-2.304 2.688,-2.304 2.688,-6.24 v -12.576 q 0,-3.936 -2.688,-6.24 -2.592,-2.304 -7.104,-2.304 -4.512,0 -7.2,2.304 -2.592,2.304 -2.592,6.24 z m -14.4,-12.576 q 0,-4.608 1.728,-8.448 1.728,-3.936 4.896,-6.72 3.168,-2.784 7.584,-4.32 4.512,-1.536 9.984,-1.536 5.472,0 9.888,1.536 4.512,1.536 7.68,4.32 3.168,2.784 4.896,6.72 1.728,3.84 1.728,8.448 v 12.576 q 0,4.608 -1.728,8.544 -1.728,3.84 -4.896,6.72 -3.168,2.784 -7.68,4.32 -4.416,1.536 -9.888,1.536 -5.472,0 -9.984,-1.536 -4.416,-1.536 -7.584,-4.32 -3.168,-2.88 -4.896,-6.72 -1.728,-3.936 -1.728,-8.544 z"
         id="path849" />
      <path
         d="m 683.0497,168.54987 v 7.68 h 0.96 q 0.192,-4.032 2.592,-6.336 2.4,-2.304 6.336,-2.304 3.744,0 6.24,2.304 2.592,2.304 3.552,6.336 h 0.384 q 0.192,-4.032 2.592,-6.336 2.4,-2.304 6.336,-2.304 4.8,0 7.488,3.648 2.784,3.552 2.784,9.792 v 40.32 h -11.808 v -38.688 q 0,-5.28 -3.84,-5.28 -1.92,0 -2.688,1.44 -0.768,1.344 -0.768,3.84 v 38.688 h -11.808 v -38.688 q 0,-5.28 -3.84,-5.28 -1.92,0 -2.688,1.44 -0.768,1.344 -0.768,3.84 v 38.688 h -11.808 v -52.8 z"
         id="path851" />
      <path
         d="m 746.02556,168.54987 v 9.12 h 0.96 q 0.768,-4.704 4.32,-7.392 3.648,-2.688 9.312,-2.688 4.224,0 7.584,1.44 3.36,1.44 5.76,4.128 2.496,2.688 3.744,6.528 1.344,3.84 1.344,8.544 v 12.96 q 0,4.896 -1.344,8.832 -1.248,3.84 -3.744,6.624 -2.4,2.688 -5.76,4.224 -3.36,1.44 -7.584,1.44 -5.664,0 -9.312,-2.688 -3.552,-2.688 -4.32,-7.488 h -0.96 q 0.096,0.768 0.288,3.456 0.192,2.688 0.192,5.76 v 15.84 h -14.4 v -68.64 z m 0.48,32.64 q 0,3.744 2.4,6.144 2.4,2.4 6.72,2.4 4.32,0 6.624,-2.496 2.4,-2.496 2.4,-6.528 v -12 q 0,-4.032 -2.496,-6.336 -2.4,-2.304 -6.528,-2.304 -4.128,0 -6.624,2.4 -2.496,2.304 -2.496,6.24 z"
         id="path853" />
      <path
         d="m 816.77741,151.26987 v 51.84 q 0,2.496 1.344,3.936 1.44,1.344 3.936,1.344 h 15.84 v 12.96 h -17.28 q -8.544,0 -13.44,-4.8 -4.8,-4.896 -4.8,-13.44 v -38.88 h -16.32 v -12.96 z"
         id="path855" />
      <path
         d="m 870.05726,222.30987 q -5.472,0 -9.984,-1.536 -4.416,-1.536 -7.584,-4.224 -3.168,-2.784 -4.896,-6.72 -1.728,-3.936 -1.728,-8.64 v -12.576 q 0,-4.8 1.728,-8.64 1.728,-3.84 4.896,-6.624 3.168,-2.784 7.584,-4.224 4.512,-1.536 9.984,-1.536 5.376,0 9.792,1.536 4.416,1.536 7.584,4.32 3.168,2.784 4.896,6.72 1.728,3.84 1.728,8.544 v 9.6 h -33.984 v 2.88 q 0,4.8 2.592,7.488 2.592,2.592 7.392,2.592 3.552,0 6.048,-1.152 2.496,-1.152 3.36,-3.168 h 14.112 q -0.864,3.456 -3.072,6.336 -2.112,2.784 -5.184,4.8 -3.072,2.016 -7.008,3.168 -3.84,1.056 -8.256,1.056 z m 10.08,-32.64 v -0.96 q 0,-4.8 -2.688,-7.392 -2.592,-2.688 -7.392,-2.688 -4.704,0 -7.392,2.688 -2.592,2.592 -2.592,7.296 v 1.056 z"
         id="path857" />
      <path
         d="m 902.21712,168.54987 h 13.92 v -16.32 h 14.4 v 16.32 h 19.68 v 12.96 h -19.68 v 21.6 q 0,2.496 1.344,3.936 1.44,1.344 3.936,1.344 h 13.44 v 12.96 h -14.88 q -8.544,0 -13.44,-4.8 -4.8,-4.896 -4.8,-13.44 v -21.6 h -13.92 z"
         id="path859" />
      <path
         d="m 985.25697,222.30987 q -5.472,0 -9.984,-1.536 -4.416,-1.536 -7.584,-4.224 -3.168,-2.784 -4.896,-6.72 -1.728,-3.936 -1.728,-8.64 v -12.576 q 0,-4.8 1.728,-8.64 1.728,-3.84 4.896,-6.624 3.168,-2.784 7.584,-4.224 4.512,-1.536 9.984,-1.536 5.376,0 9.792,1.536 4.416,1.536 7.58403,4.32 3.168,2.784 4.896,6.72 1.728,3.84 1.728,8.544 v 9.6 h -33.98403 v 2.88 q 0,4.8 2.592,7.488 2.592,2.592 7.392,2.592 3.552,0 6.048,-1.152 2.496,-1.152 3.36,-3.168 h 14.11203 q -0.864,3.456 -3.072,6.336 -2.112,2.784 -5.184,4.8 -3.07203,2.016 -7.00803,3.168 -3.84,1.056 -8.256,1.056 z m 10.08,-32.64 v -0.96 q 0,-4.8 -2.688,-7.392 -2.592,-2.688 -7.392,-2.688 -4.704,0 -7.392,2.688 -2.592,2.592 -2.592,7.296 v 1.056 z"
         id="path861" />
      <path
         d="m 1035.2728,152.22987 h 15.168 v 14.4 l -2.208,31.2 h -10.752 l -2.208,-31.2 z m 6.144,56.16 h 2.88 q 3.264,0 5.184,1.824 2.016,1.824 2.016,4.896 0,3.072 -2.016,4.896 -1.92,1.824 -5.28,1.824 h -2.784 q -3.264,0 -5.28,-1.824 -1.92,-1.824 -1.92,-4.896 0,-3.072 1.92,-4.896 2.016,-1.824 5.28,-1.824 z"
         id="path863" />
    </g>
  </g>
  <g
     inkscape:groupmode="layer"
     id="layer2"
     inkscape:label="Layer 2"
     style="display:inline;filter:url(#filter1126)">
    <g
       style="font-style:normal;font-variant:normal;font-weight:normal;font-stretch:normal;font-size:96px;line-height:1.25;font-family:'JetBrains Mono ExtraBold';-inkscape-font-specification:'JetBrains Mono ExtraBold, ';letter-spacing:0px;word-spacing:0px;fill:#00ff00;fill-opacity:1;stroke:none"
       id="text835-4"
       aria-label="Level Complete!">
      <path
         id="path837-7"
         d="m 231.17887,152.22987 v 55.68 h 28.32 v 13.44 h -42.72 v -69.12 z" />
      <path
         id="path839-4"
         d="m 294.05873,222.30987 q -5.472,0 -9.984,-1.536 -4.416,-1.536 -7.584,-4.224 -3.168,-2.784 -4.896,-6.72 -1.728,-3.936 -1.728,-8.64 v -12.576 q 0,-4.8 1.728,-8.64 1.728,-3.84 4.896,-6.624 3.168,-2.784 7.584,-4.224 4.512,-1.536 9.984,-1.536 5.376,0 9.792,1.536 4.416,1.536 7.584,4.32 3.168,2.784 4.896,6.72 1.728,3.84 1.728,8.544 v 9.6 h -33.984 v 2.88 q 0,4.8 2.592,7.488 2.592,2.592 7.392,2.592 3.552,0 6.048,-1.152 2.496,-1.152 3.36,-3.168 h 14.112 q -0.864,3.456 -3.072,6.336 -2.112,2.784 -5.184,4.8 -3.072,2.016 -7.008,3.168 -3.84,1.056 -8.256,1.056 z m 10.08,-32.64 v -0.96 q 0,-4.8 -2.688,-7.392 -2.592,-2.688 -7.392,-2.688 -4.704,0 -7.392,2.688 -2.592,2.592 -2.592,7.296 v 1.056 z" />
      <path
         id="path841-4"
         d="m 325.06658,168.54987 h 14.88 l 9.984,31.872 q 0.576,1.728 0.864,3.552 0.384,1.824 0.576,3.36 0.192,1.824 0.288,3.456 h 0.576 q 0.096,-1.632 0.288,-3.456 0.192,-1.536 0.576,-3.36 0.384,-1.824 0.864,-3.552 l 9.6,-31.872 h 14.688 l -17.856,52.8 h -17.28 z" />
      <path
         id="path843-3"
         d="m 409.25844,222.30987 q -5.472,0 -9.984,-1.536 -4.416,-1.536 -7.584,-4.224 -3.168,-2.784 -4.896,-6.72 -1.728,-3.936 -1.728,-8.64 v -12.576 q 0,-4.8 1.728,-8.64 1.728,-3.84 4.896,-6.624 3.168,-2.784 7.584,-4.224 4.512,-1.536 9.984,-1.536 5.376,0 9.792,1.536 4.416,1.536 7.584,4.32 3.168,2.784 4.896,6.72 1.728,3.84 1.728,8.544 v 9.6 h -33.984 v 2.88 q 0,4.8 2.592,7.488 2.592,2.592 7.392,2.592 3.552,0 6.048,-1.152 2.496,-1.152 3.36,-3.168 h 14.112 q -0.864,3.456 -3.072,6.336 -2.112,2.784 -5.184,4.8 -3.072,2.016 -7.008,3.168 -3.84,1.056 -8.256,1.056 z m 10.08,-32.64 v -0.96 q 0,-4.8 -2.688,-7.392 -2.592,-2.688 -7.392,-2.688 -4.704,0 -7.392,2.688 -2.592,2.592 -2.592,7.296 v 1.056 z" />
      <path
         id="path845-0"
         d="m 471.17829,151.26987 v 51.84 q 0,2.496 1.344,3.936 1.44,1.344 3.936,1.344 h 15.84 v 12.96 h -17.28 q -8.544,0 -13.44,-4.8 -4.8,-4.896 -4.8,-13.44 v -38.88 h -16.32 v -12.96 z" />
      <path
         id="path847-7"
         d="m 582.538,151.26987 q 5.376,0 9.792,1.536 4.416,1.536 7.584,4.416 3.168,2.784 4.896,6.816 1.728,3.936 1.728,8.832 h -14.4 q 0,-4.032 -2.592,-6.336 -2.592,-2.304 -7.008,-2.304 -4.512,0 -7.2,2.304 -2.592,2.304 -2.592,6.336 v 27.84 q 0,4.032 2.496,6.336 2.592,2.304 7.2,2.304 4.512,0 7.104,-2.4 2.592,-2.4 2.592,-6.24 h 14.4 q 0,4.896 -1.728,8.928 -1.728,3.936 -4.896,6.816 -3.168,2.784 -7.584,4.32 -4.416,1.536 -9.888,1.536 -5.472,0 -9.888,-1.536 -4.416,-1.536 -7.584,-4.32 -3.168,-2.88 -4.896,-6.816 -1.728,-4.032 -1.728,-8.928 v -27.84 q 0,-4.896 1.728,-8.832 1.728,-4.032 4.896,-6.816 3.168,-2.88 7.584,-4.416 4.512,-1.536 9.984,-1.536 z" />
      <path
         id="path849-8"
         d="m 629.86585,201.18987 q 0,3.936 2.592,6.24 2.688,2.304 7.2,2.304 4.512,0 7.104,-2.304 2.688,-2.304 2.688,-6.24 v -12.576 q 0,-3.936 -2.688,-6.24 -2.592,-2.304 -7.104,-2.304 -4.512,0 -7.2,2.304 -2.592,2.304 -2.592,6.24 z m -14.4,-12.576 q 0,-4.608 1.728,-8.448 1.728,-3.936 4.896,-6.72 3.168,-2.784 7.584,-4.32 4.512,-1.536 9.984,-1.536 5.472,0 9.888,1.536 4.512,1.536 7.68,4.32 3.168,2.784 4.896,6.72 1.728,3.84 1.728,8.448 v 12.576 q 0,4.608 -1.728,8.544 -1.728,3.84 -4.896,6.72 -3.168,2.784 -7.68,4.32 -4.416,1.536 -9.888,1.536 -5.472,0 -9.984,-1.536 -4.416,-1.536 -7.584,-4.32 -3.168,-2.88 -4.896,-6.72 -1.728,-3.936 -1.728,-8.544 z" />
      <path
         id="path851-6"
         d="m 683.0497,168.54987 v 7.68 h 0.96 q 0.192,-4.032 2.592,-6.336 2.4,-2.304 6.336,-2.304 3.744,0 6.24,2.304 2.592,2.304 3.552,6.336 h 0.384 q 0.192,-4.032 2.592,-6.336 2.4,-2.304 6.336,-2.304 4.8,0 7.488,3.648 2.784,3.552 2.784,9.792 v 40.32 h -11.808 v -38.688 q 0,-5.28 -3.84,-5.28 -1.92,0 -2.688,1.44 -0.768,1.344 -0.768,3.84 v 38.688 h -11.808 v -38.688 q 0,-5.28 -3.84,-5.28 -1.92,0 -2.688,1.44 -0.768,1.344 -0.768,3.84 v 38.688 h -11.808 v -52.8 z" />
      <path
         id="path853-8"
         d="m 746.02556,168.54987 v 9.12 h 0.96 q 0.768,-4.704 4.32,-7.392 3.648,-2.688 9.312,-2.688 4.224,0 7.584,1.44 3.36,1.44 5.76,4.128 2.496,2.688 3.744,6.528 1.344,3.84 1.344,8.544 v 12.96 q 0,4.896 -1.344,8.832 -1.248,3.84 -3.744,6.624 -2.4,2.688 -5.76,4.224 -3.36,1.44 -7.584,1.44 -5.664,0 -9.312,-2.688 -3.552,-2.688 -4.32,-7.488 h -0.96 q 0.096,0.768 0.288,3.456 0.192,2.688 0.192,5.76 v 15.84 h -14.4 v -68.64 z m 0.48,32.64 q 0,3.744 2.4,6.144 2.4,2.4 6.72,2.4 4.32,0 6.624,-2.496 2.4,-2.496 2.4,-6.528 v -12 q 0,-4.032 -2.496,-6.336 -2.4,-2.304 -6.528,-2.304 -4.128,0 -6.624,2.4 -2.496,2.304 -2.496,6.24 z" />
      <path
         id="path855-8"
         d="m 816.77741,151.26987 v 51.84 q 0,2.496 1.344,3.936 1.44,1.344 3.936,1.344 h 15.84 v 12.96 h -17.28 q -8.544,0 -13.44,-4.8 -4.8,-4.896 -4.8,-13.44 v -38.88 h -16.32 v -12.96 z" />
      <path
         id="path857-4"
         d="m 870.05726,222.30987 q -5.472,0 -9.984,-1.536 -4.416,-1.536 -7.584,-4.224 -3.168,-2.784 -4.896,-6.72 -1.728,-3.936 -1.728,-8.64 v -12.576 q 0,-4.8 1.728,-8.64 1.728,-3.84 4.896,-6.624 3.168,-2.784 7.584,-4.224 4.512,-1.536 9.984,-1.536 5.376,0 9.792,1.536 4.416,1.536 7.584,4.32 3.168,2.784 4.896,6.72 1.728,3.84 1.728,8.544 v 9.6 h -33.984 v 2.88 q 0,4.8 2.592,7.488 2.592,2.592 7.392,2.592 3.552,0 6.048,-1.152 2.496,-1.152 3.36,-3.168 h 14.112 q -0.864,3.456 -3.072,6.336 -2.112,2.784 -5.184,4.8 -3.072,2.016 -7.008,3.168 -3.84,1.056 -8.256,1.056 z m 10.08,-32.64 v -0.96 q 0,-4.8 -2.688,-7.392 -2.592,-2.688 -7.392,-2.688 -4.704,0 -7.392,2.688 -2.592,2.592 -2.592,7.296 v 1.056 z" />
      <path
         id="path859-3"
         d="m 902.21712,168.54987 h 13.92 v -16.32 h 14.4 v 16.32 h 19.68 v 12.96 h -19.68 v 21.6 q 0,2.496 1.344,3.936 1.44,1.344 3.936,1.344 h 13.44 v 12.96 h -14.88 q -8.544,0 -13.44,-4.8 -4.8,-4.896 -4.8,-13.44 v -21.6 h -13.92 z" />
      <path
         id="path861-1"
         d="m 985.25697,222.30987 q -5.472,0 -9.984,-1.536 -4.416,-1.536 -7.584,-4.224 -3.168,-2.784 -4.896,-6.72 -1.728,-3.936 -1.728,-8.64 v -12.576 q 0,-4.8 1.728,-8.64 1.728,-3.84 4.896,-6.624 3.168,-2.784 7.584,-4.224 4.512,-1.536 9.984,-1.536 5.376,0 9.792,1.536 4.416,1.536 7.58403,4.32 3.168,2.784 4.896,6.72 1.728,3.84 1.728,8.544 v 9.6 h -33.98403 v 2.88 q 0,4.8 2.592,7.488 2.592,2.592 7.392,2.592 3.552,0 6.048,-1.152 2.496,-1.152 3.36,-3.168 h 14.11203 q -0.864,3.456 -3.072,6.336 -2.112,2.784 -5.184,4.8 -3.07203,2.016 -7.00803,3.168 -3.84,1.056 -8.256,1.056 z m 10.08,-32.64 v -0.96 q 0,-4.8 -2.688,-7.392 -2.592,-2.688 -7.392,-2.688 -4.704,0 -7.392,2.688 -2.592,2.592 -2.592,7.296 v 1.056 z" />
      <path
         id="path863-4"
         d="m 1035.2728,152.22987 h 15.168 v 14.4 l -2.208,31.2 h -10.752 l -2.208,-31.2 z m 6.144,56.16 h 2.88 q 3.264,0 5.184,1.824 2.016,1.824 2.016,4.896 0,3.072 -2.016,4.896 -1.92,1.824 -5.28,1.824 h -2.784 q -3.264,0 -5.28,-1.824 -1.92,-1.824 -1.92,-4.896 0,-3.072 1.92,-4.896 2.016,-1.824 5.28,-1.824 z" />
    </g>
  </g>
</svg>
